<svg width="460" height="410" viewBox="0 0 460 410" fill="none" xmlns="http://www.w3.org/2000/svg">
<path d="M33.2689 140.974C40.5791 130.507 50.1595 120.111 61.4799 109.142C92.6111 79.0279 90.341 12.4513 189.395 1.07059C252.957 -6.23194 281.898 25.3688 294.488 48.9439C307.849 73.9754 328.27 96.3048 355.411 104.401C370.561 108.921 411.763 93.0604 442.574 132.305C482.675 183.433 453.784 283.539 353.611 308.42C262.777 330.95 217.186 489.567 105.242 358.965C57.6198 303.407 -53.7643 265.599 33.2689 140.974Z" fill="#FFF8EA"/>
<path d="M182.324 51.0555C183.314 50.4729 184.245 49.7598 185.085 48.8959C185.865 48.1024 186.535 47.2285 187.085 46.3044L185.145 44.7675C185.815 43.6526 186.305 42.4673 186.605 41.2418L189.095 41.503C189.385 40.388 189.535 39.2228 189.525 38.0175C189.525 37.5454 189.495 37.0833 189.445 36.6212C189.435 36.5007 189.415 36.3802 189.405 36.2596C189.335 35.7473 189.235 35.2552 189.115 34.763L186.635 35.0543C186.605 34.9136 186.565 34.773 186.525 34.6324C186.485 34.4717 186.435 34.321 186.385 34.1603C186.095 33.2462 185.705 32.3623 185.205 31.5185L187.145 29.9415C186.565 28.9471 185.845 28.0129 184.995 27.1691C184.205 26.3856 183.334 25.7126 182.414 25.1602L180.884 27.1189C179.784 26.4359 178.594 25.9437 177.374 25.6323L177.634 23.1412C176.524 22.8499 175.364 22.6992 174.164 22.6992C173.044 22.7093 171.964 22.8499 170.934 23.1111L171.224 25.5821C169.994 25.8734 168.804 26.3555 167.694 27.0185L166.134 25.0798C165.144 25.6624 164.214 26.3856 163.374 27.2394C162.594 28.033 161.924 28.9069 161.374 29.831L163.304 31.3678C162.634 32.4728 162.134 33.6681 161.834 34.9036L159.364 34.6424C159.074 35.7574 158.924 36.9226 158.934 38.1279C158.944 39.253 159.084 40.3378 159.344 41.3724L161.794 41.0811C162.084 42.3166 162.564 43.5119 163.224 44.6369L161.304 46.2039C161.884 47.1984 162.594 48.1325 163.454 48.9763C164.244 49.7598 165.114 50.4328 166.034 50.9852L167.554 49.0566C168.664 49.7397 169.854 50.2319 171.074 50.5433L170.814 53.0042C171.924 53.2955 173.084 53.4462 174.284 53.4462C175.404 53.4361 176.484 53.2955 177.514 53.0344L177.224 50.5834C178.454 50.2821 179.644 49.7999 180.754 49.137L182.324 51.0555ZM179.624 43.8233C176.634 46.666 171.894 46.6961 168.874 43.8836C165.544 40.7798 165.514 35.4962 168.814 32.3623C171.804 29.5196 176.544 29.4895 179.564 32.302C182.894 35.4058 182.914 40.6793 179.624 43.8233Z" fill="#DBDCE2"/>
<path d="M158.503 363.343C159.573 362.711 160.583 361.927 161.503 361.003C162.353 360.139 163.073 359.195 163.673 358.19L161.563 356.513C162.293 355.308 162.813 354.012 163.143 352.686L165.843 352.977C166.153 351.772 166.323 350.496 166.313 349.19C166.313 348.678 166.283 348.176 166.233 347.684C166.223 347.553 166.203 347.422 166.183 347.292C166.113 346.739 166.003 346.197 165.873 345.665L163.183 345.986C163.143 345.835 163.103 345.675 163.063 345.524C163.013 345.353 162.963 345.183 162.913 345.012C162.603 344.017 162.173 343.053 161.633 342.149L163.743 340.441C163.113 339.367 162.333 338.352 161.413 337.428C160.553 336.574 159.613 335.851 158.613 335.248L156.943 337.368C155.743 336.634 154.463 336.092 153.143 335.761L153.433 333.058C152.233 332.737 150.963 332.576 149.663 332.586C148.453 332.596 147.273 332.747 146.153 333.038L146.463 335.72C145.132 336.042 143.842 336.564 142.632 337.277L140.942 335.178C139.872 335.811 138.862 336.594 137.942 337.518C137.092 338.382 136.372 339.326 135.772 340.331L137.872 341.998C137.142 343.204 136.602 344.499 136.272 345.835L133.592 345.554C133.272 346.76 133.112 348.035 133.122 349.341C133.132 350.556 133.282 351.742 133.572 352.867L136.232 352.555C136.552 353.891 137.072 355.197 137.782 356.413L135.702 358.1C136.332 359.175 137.102 360.189 138.032 361.113C138.892 361.967 139.832 362.69 140.832 363.293L142.482 361.204C143.682 361.937 144.972 362.48 146.303 362.821L146.023 365.493C147.223 365.804 148.493 365.975 149.793 365.965C151.003 365.955 152.173 365.804 153.303 365.513L152.993 362.851C154.323 362.53 155.623 362.007 156.823 361.274L158.503 363.343ZM155.563 355.488C152.323 358.582 147.173 358.602 143.902 355.549C140.282 352.174 140.252 346.448 143.832 343.043C147.073 339.949 152.223 339.929 155.493 342.983C159.113 346.358 159.143 352.083 155.563 355.488Z" fill="#868FB3"/>
<path d="M389.011 239.341C389.821 238.818 390.571 238.176 391.241 237.432C391.871 236.739 392.391 235.986 392.811 235.192L391.131 233.977C391.651 233.023 392.011 232.008 392.221 230.963L394.311 231.094C394.511 230.15 394.591 229.165 394.541 228.161C394.521 227.769 394.481 227.377 394.421 226.996C394.411 226.895 394.391 226.795 394.371 226.694C394.291 226.272 394.191 225.861 394.071 225.449L392.001 225.79C391.971 225.67 391.931 225.559 391.891 225.439C391.851 225.308 391.801 225.178 391.761 225.047C391.481 224.294 391.121 223.57 390.681 222.877L392.251 221.481C391.731 220.668 391.091 219.914 390.351 219.241C389.661 218.608 388.911 218.086 388.121 217.664L386.901 219.362C385.951 218.839 384.941 218.468 383.911 218.257L384.041 216.167C383.101 215.967 382.121 215.886 381.121 215.936C380.191 215.987 379.281 216.147 378.431 216.409L378.761 218.468C377.741 218.759 376.761 219.211 375.861 219.804L374.481 218.237C373.671 218.759 372.921 219.402 372.251 220.145C371.621 220.838 371.101 221.602 370.681 222.385L372.361 223.601C371.841 224.555 371.471 225.569 371.261 226.614L369.191 226.483C368.991 227.428 368.911 228.412 368.961 229.427C369.011 230.361 369.171 231.275 369.431 232.129L371.471 231.797C371.761 232.822 372.211 233.806 372.801 234.72L371.261 236.096C371.781 236.91 372.421 237.663 373.161 238.336C373.851 238.969 374.601 239.491 375.391 239.913L376.591 238.236C377.541 238.758 378.561 239.13 379.601 239.351L379.481 241.42C380.421 241.621 381.401 241.701 382.401 241.651C383.331 241.601 384.231 241.44 385.091 241.179L384.761 239.14C385.781 238.838 386.761 238.396 387.661 237.794L389.011 239.341ZM386.471 233.384C384.081 235.885 380.111 236.086 377.471 233.846C374.561 231.375 374.341 226.956 376.981 224.203C379.371 221.702 383.341 221.501 385.981 223.741C388.891 226.212 389.121 230.632 386.471 233.384Z" fill="#868FB3"/>
<path d="M97.3108 237.383C97.3108 237.383 65.3596 259.15 64.6796 261.892C63.3196 267.376 105.561 265.699 105.561 265.699" fill="#FB8F67"/>
<path d="M204.215 314.027C204.215 314.027 194.104 351.454 191.744 352.991C187.024 356.065 174.874 315.403 174.874 315.403" fill="#FB8F67"/>
<path d="M233.906 125.351C233.906 125.351 218.336 124.939 200.535 120.831C184.004 117.014 168.554 110.254 168.554 110.254C172.704 92.1329 190.695 80.8125 208.735 84.9811C226.786 89.1496 238.056 107.23 233.906 125.351Z" fill="#FB8F67"/>
<path d="M212.404 86.8599C211.914 89.0195 209.764 90.3655 207.624 89.8733C205.474 89.3811 204.134 87.2215 204.624 85.0719C205.114 82.9123 207.264 81.5663 209.404 82.0585C211.564 82.5507 212.904 84.7103 212.404 86.8599Z" fill="#FB8F67"/>
<path d="M206.793 85.0479L196.667 129.297L200.342 130.145L210.467 85.8961L206.793 85.0479Z" fill="#FB8F67"/>
<path d="M265.307 147.865C265.307 147.865 270.747 162.52 280.408 178.09C289.378 192.554 300.758 205.03 300.758 205.03C316.469 195.206 321.279 174.423 311.499 158.643C301.718 142.863 281.028 138.031 265.307 147.865Z" fill="#FB8F67"/>
<path d="M308.538 155.771C306.668 156.947 306.098 159.418 307.258 161.296C308.428 163.174 310.888 163.747 312.758 162.582C314.628 161.406 315.198 158.935 314.038 157.057C312.868 155.179 310.408 154.606 308.538 155.771Z" fill="#FB8F67"/>
<path d="M310.087 157.325L271.715 181.324L273.708 184.539L312.08 160.539L310.087 157.325Z" fill="#FB8F67"/>
<path d="M244.156 143.687L250.136 135.27" stroke="#F46B5D" stroke-width="3.2919" stroke-miterlimit="10"/>
<path d="M256.636 141.872L241.776 131.214C240.656 130.411 240.396 128.854 241.196 127.729C241.996 126.604 243.546 126.342 244.666 127.146L259.526 137.803C260.646 138.607 260.906 140.164 260.106 141.289C259.306 142.414 257.756 142.675 256.636 141.872Z" fill="#FB8F67"/>
<path d="M283.402 246.672C297.482 194.621 266.887 140.96 215.066 126.817C163.245 112.675 109.822 143.405 95.7412 195.456C81.6609 247.507 112.256 301.168 164.077 315.311C215.898 329.454 269.322 298.723 283.402 246.672Z" fill="#FB8F67"/>
<path d="M206.374 309.363C254.92 300.056 286.762 252.982 277.495 204.221C268.229 155.46 221.363 123.477 172.818 132.784C124.272 142.092 92.4303 189.165 101.697 237.926C110.963 286.687 157.829 318.671 206.374 309.363Z" fill="#DBDCE2"/>
<path d="M196.612 306.117C243.377 302.224 278.145 260.99 274.269 214.018C270.393 167.046 229.341 132.124 182.577 136.017C135.812 139.91 101.044 181.145 104.92 228.116C108.796 275.088 149.848 310.01 196.612 306.117Z" fill="white"/>
<path d="M229.825 163.725C228.655 162.831 228.425 161.144 229.325 159.969L233.055 155.067C233.945 153.891 235.625 153.66 236.795 154.564C237.965 155.458 238.195 157.146 237.295 158.321L233.565 163.223C232.675 164.398 230.995 164.619 229.825 163.725Z" fill="#F46B5D"/>
<path d="M243.386 261.59C244.276 260.415 245.956 260.184 247.126 261.088L252.016 264.835C253.186 265.729 253.416 267.416 252.516 268.591C251.626 269.767 249.946 269.998 248.776 269.094L243.886 265.347C242.726 264.443 242.496 262.765 243.386 261.59Z" fill="#F46B5D"/>
<path d="M145.972 275.263C147.142 276.157 147.372 277.844 146.482 279.019L142.762 283.931C141.872 285.106 140.192 285.337 139.022 284.443C137.852 283.549 137.622 281.862 138.512 280.687L142.232 275.775C143.122 274.59 144.802 274.369 145.972 275.263Z" fill="#F46B5D"/>
<path d="M132.301 177.417C131.411 178.592 129.731 178.823 128.561 177.929L123.671 174.193C122.501 173.299 122.271 171.611 123.161 170.436C124.051 169.261 125.731 169.03 126.901 169.924L131.791 173.66C132.971 174.554 133.201 176.232 132.301 177.417Z" fill="#F46B5D"/>
<path d="M254.907 191.021C254.497 190.036 254.957 188.901 255.937 188.489L260.027 186.772C261.007 186.36 262.137 186.822 262.547 187.806C262.957 188.791 262.497 189.926 261.517 190.338L257.427 192.055C256.447 192.467 255.317 192.005 254.907 191.021Z" fill="#F46B5D"/>
<path d="M260.097 228.485C260.237 227.43 261.197 226.677 262.247 226.818L266.637 227.39C267.687 227.531 268.437 228.495 268.297 229.55C268.157 230.605 267.197 231.358 266.147 231.217L261.757 230.645C260.707 230.514 259.957 229.54 260.097 228.485Z" fill="#F46B5D"/>
<path d="M216.235 286.795C217.215 286.383 218.345 286.845 218.755 287.83L220.465 291.938C220.875 292.922 220.415 294.057 219.435 294.469C218.455 294.881 217.325 294.419 216.915 293.435L215.205 289.326C214.795 288.342 215.255 287.207 216.235 286.795Z" fill="#F46B5D"/>
<path d="M178.933 292.029C179.983 292.169 180.733 293.134 180.593 294.188L180.033 298.598C179.893 299.653 178.933 300.406 177.883 300.265C176.833 300.125 176.083 299.16 176.223 298.106L176.783 293.696C176.913 292.641 177.883 291.888 178.933 292.029Z" fill="#F46B5D"/>
<path d="M120.862 248.002C121.272 248.986 120.812 250.121 119.832 250.533L115.742 252.25C114.762 252.662 113.632 252.2 113.222 251.216C112.812 250.231 113.272 249.096 114.252 248.685L118.342 246.967C119.322 246.555 120.452 247.017 120.862 248.002Z" fill="#F46B5D"/>
<path d="M115.641 210.536C115.511 211.591 114.541 212.344 113.491 212.203L109.101 211.641C108.051 211.51 107.301 210.536 107.441 209.481C107.571 208.426 108.541 207.673 109.591 207.814L113.981 208.376C115.031 208.507 115.771 209.481 115.641 210.536Z" fill="#F46B5D"/>
<path d="M159.443 152.184C158.463 152.596 157.333 152.134 156.923 151.149L155.213 147.041C154.803 146.057 155.263 144.922 156.243 144.51C157.223 144.098 158.353 144.56 158.763 145.545L160.473 149.653C160.883 150.637 160.423 151.772 159.443 152.184Z" fill="#F46B5D"/>
<path d="M196.734 146.922C195.684 146.791 194.934 145.817 195.074 144.762L195.634 140.352C195.764 139.298 196.734 138.544 197.784 138.685C198.834 138.815 199.584 139.79 199.444 140.844L198.884 145.254C198.754 146.309 197.794 147.052 196.734 146.922Z" fill="#F46B5D"/>
<path d="M186.874 219.915C186.274 218.539 186.904 216.932 188.274 216.329L259.877 184.869C261.247 184.266 262.847 184.899 263.447 186.275C264.047 187.651 263.417 189.258 262.047 189.861L190.444 221.321C189.074 221.914 187.474 221.291 186.874 219.915Z" fill="#868FB3"/>
<path d="M190.074 220.367C189.404 221.713 187.774 222.256 186.434 221.573L129.052 192.493C127.712 191.82 127.172 190.183 127.852 188.837C128.522 187.491 130.152 186.948 131.492 187.631L188.874 216.711C190.204 217.384 190.745 219.021 190.074 220.367Z" fill="#868FB3"/>
<path d="M190.174 224.755C187.264 226.031 183.884 224.705 182.614 221.782C181.344 218.859 182.664 215.464 185.574 214.188C188.484 212.913 191.864 214.238 193.134 217.161C194.404 220.084 193.084 223.48 190.174 224.755Z" fill="#868FB3"/>
<path d="M417.963 254.286C417.963 254.286 421.713 248.058 423.013 245.888C423.013 245.888 430.733 245.738 432.623 248.42L426.653 259.318" fill="#F5C7A6"/>
<path d="M422.053 247.601C422.053 247.601 424.123 248.897 426.943 247.772C429.763 246.647 432.273 248.917 432.273 248.917C432.273 248.917 440.663 247.269 443.093 247.932C446.703 248.907 448.103 246.636 446.473 245.391C444.643 244.035 430.033 237.315 427.933 236.562C425.833 235.808 424.163 238.149 422.833 240.549C421.503 242.94 421.713 246.757 422.053 247.601Z" fill="#1D878C"/>
<path d="M422.053 247.601C422.053 247.601 424.123 248.897 426.943 247.772C429.763 246.647 432.273 248.917 432.273 248.917C432.273 248.917 440.663 247.269 443.093 247.932C446.703 248.907 448.103 246.636 446.473 245.391C444.643 244.035 430.033 237.315 427.933 236.562C425.833 235.808 424.163 238.149 422.833 240.549C421.503 242.94 421.713 246.757 422.053 247.601Z" fill="#6473AD"/>
<path d="M436.124 324.281C436.124 324.281 443.364 324.08 445.884 324C445.884 324 450.184 330.439 448.954 333.492L436.604 334.336" fill="#F5C7A6"/>
<path d="M443.934 324.112C443.934 324.112 443.964 326.563 446.434 328.341C448.904 330.109 448.364 333.464 448.364 333.464C448.364 333.464 454.284 339.661 455.044 342.072C456.174 345.648 458.834 345.598 458.994 343.549C459.144 341.268 456.874 325.287 456.364 323.107C455.854 320.928 453.004 320.777 450.264 320.958C447.534 321.129 444.454 323.379 443.934 324.112Z" fill="#1D878C"/>
<path d="M443.934 324.112C443.934 324.112 443.964 326.563 446.434 328.341C448.904 330.109 448.364 333.464 448.364 333.464C448.364 333.464 454.284 339.661 455.044 342.072C456.174 345.648 458.834 345.598 458.994 343.549C459.144 341.268 456.874 325.287 456.364 323.107C455.854 320.928 453.004 320.777 450.264 320.958C447.534 321.129 444.454 323.379 443.934 324.112Z" fill="#6473AD"/>
<path d="M374.671 334.273C374.671 334.273 392.372 339.868 438.864 334.675C438.864 334.675 440.184 330.104 438.004 323.636C438.004 323.636 430.533 323.495 418.283 321.496C407.953 319.819 399.232 311.783 378.442 316.584" fill="#1D878C"/>
<path d="M374.671 334.273C374.671 334.273 392.372 339.868 438.864 334.675C438.864 334.675 440.184 330.104 438.004 323.636C438.004 323.636 430.533 323.495 418.283 321.496C407.953 319.819 399.232 311.783 378.442 316.584" fill="#868FB3"/>
<path d="M394.572 311.405C394.572 311.405 408.582 299.18 428.523 256.691C428.523 256.691 425.343 253.175 418.703 251.648C418.703 251.648 414.672 257.967 406.562 267.409C399.722 275.364 388.352 278.619 381.531 298.929" fill="#1D878C"/>
<path d="M394.572 311.405C394.572 311.405 408.582 299.18 428.523 256.691C428.523 256.691 425.343 253.175 418.703 251.648C418.703 251.648 414.672 257.967 406.562 267.409C399.722 275.364 388.352 278.619 381.531 298.929" fill="#868FB3"/>
<path d="M381.382 310.841C380.932 310.65 380.482 310.44 380.012 310.209C377.412 308.963 374.462 307.245 371.111 304.955C365.031 300.787 357.661 294.73 348.831 286.182C342.43 280.004 335.27 272.511 327.26 263.49L344.65 248.966C344.65 248.966 356.691 248.393 364.861 256.549C367.841 259.533 370.801 267.157 376.052 273.364C385.202 284.173 395.032 298.989 396.302 305.116C397.392 310.259 393.702 316.205 381.382 310.841Z" fill="#1D878C"/>
<path d="M381.382 310.841C380.932 310.65 380.482 310.44 380.012 310.209C377.412 308.963 374.462 307.245 371.111 304.955C365.031 300.787 357.661 294.73 348.831 286.182C342.43 280.004 335.27 272.511 327.26 263.49L344.65 248.966C344.65 248.966 356.691 248.393 364.861 256.549C367.841 259.533 370.801 267.157 376.052 273.364C385.202 284.173 395.032 298.989 396.302 305.116C397.392 310.259 393.702 316.205 381.382 310.841Z" fill="#868FB3"/>
<path d="M338.36 266.573C338.36 266.573 349.391 264.715 358.021 275.162C362.171 280.184 362.761 287.848 367.511 294.437C375.791 305.929 384.442 321.478 385.242 327.675C386.502 337.429 371.031 348.629 319.629 280.787" fill="#868FB3"/>
<path d="M322.559 236.699C322.559 236.699 333.85 246.493 346.98 249.024C346.98 249.024 346.98 256.688 341.77 266.231C337.62 273.835 324.259 281.107 319.649 280.755C319.649 280.755 309.649 267.396 300.358 261.399" fill="#F5C7A6"/>
<path d="M281.068 209.819C281.068 209.819 285.178 215.424 280.738 222.686C280.738 222.686 291.608 228.422 298.728 219.984C305.848 211.546 290.658 209.035 290.658 209.035L281.068 209.819Z" fill="#D9E4F9"/>
<path d="M281.068 209.819C281.068 209.819 285.178 215.424 280.738 222.686C280.738 222.686 291.608 228.422 298.728 219.984C305.848 211.546 290.658 209.035 290.658 209.035L281.068 209.819Z" fill="#EEB48B"/>
<path d="M269.751 181.327C269.751 181.327 266.461 188.077 270.701 201.487C275.092 215.359 293.362 212.355 298.542 209.091C303.723 205.816 298.072 191.442 298.072 191.442L283.572 178.906L269.751 181.327Z" fill="#FEDED2"/>
<path d="M281.628 225.933C281.628 225.933 267.258 225.18 261.357 223.02C251.777 219.525 240.047 200.751 238.986 195.438C238.986 195.438 236.316 196.804 236.126 199.003C235.936 201.203 242.857 217.024 247.447 224.256C252.037 231.488 255.207 235.325 263.167 238.188" fill="#D9E4F9"/>
<path d="M281.628 225.933C281.628 225.933 267.258 225.18 261.357 223.02C251.777 219.525 240.047 200.751 238.986 195.438C238.986 195.438 236.316 196.804 236.126 199.003C235.936 201.203 242.857 217.024 247.447 224.256C252.037 231.488 255.207 235.325 263.167 238.188" fill="#F3CBBC"/>
<path d="M303.019 275.497C296.469 266.808 285.969 255.528 282.599 254.152C276.708 251.761 272.598 248.346 272.258 242.741C271.908 237.146 270.108 226.699 272.678 223.124C274.188 221.024 276.718 219.919 276.718 219.919C283.469 217.097 288.219 219.337 296.319 215.59C299.629 214.063 302.539 218.804 304.939 219.568C310.29 221.285 313.83 226.067 321.56 234.725C325.16 238.733 330.28 241.395 334.761 243.082C332.99 252.062 322.97 273.9 303.019 275.497Z" fill="#FFC401"/>
<path opacity="0.5" d="M303.019 275.497C296.469 266.808 285.969 255.528 282.599 254.152C276.708 251.761 272.598 248.346 272.258 242.741C271.908 237.146 270.108 226.699 272.678 223.124C274.188 221.024 276.718 219.919 276.718 219.919C283.469 217.097 288.219 219.337 296.319 215.59C299.629 214.063 302.539 218.804 304.939 219.568C310.29 221.285 313.83 226.067 321.56 234.725C325.16 238.733 330.28 241.395 334.761 243.082C332.99 252.062 322.97 273.9 303.019 275.497Z" fill="url(#paint0_linear_470_63)"/>
<path d="M281.798 220.606C286.928 223.067 295.338 231.856 292.788 240.856C290.238 249.856 279.028 242.624 277.018 239.078C275.008 235.532 275.998 217.834 281.798 220.606Z" fill="#D9E4F9"/>
<path d="M281.798 220.606C286.928 223.067 295.338 231.856 292.788 240.856C290.238 249.856 279.028 242.624 277.018 239.078C275.008 235.532 275.998 217.834 281.798 220.606Z" fill="#FEDED2"/>
<path d="M284.269 224.516C282.319 212.654 261.748 227.198 251.868 238.087C251.557 238.428 251.017 238.348 250.937 237.886C249.257 228.143 238.807 210.082 238.547 199.857C238.497 198.008 241.377 194.342 241.307 192.413C241.227 190.224 234.077 190.907 232.527 198.852C230.807 207.671 237.387 239.594 244.027 250.171C251.207 261.612 286.269 236.691 284.269 224.516Z" fill="#FEDED2"/>
<path d="M310.993 226.197C308.473 224.821 305.732 223.847 302.902 223.405C293.552 221.918 288.312 214.033 286.542 209.965C281.142 197.57 281.172 192.557 281.092 187.766C272.321 190.106 268.271 185.918 268.271 185.918C266.601 178.706 273.241 171.614 279.061 168.892C290.662 163.488 303.052 168.711 309.753 179.66C313.143 185.184 317.063 192.417 321.813 201.427C333.183 222.983 343.514 219.758 343.514 219.758C343.514 219.758 343.504 219.768 343.494 219.778C343.104 220.21 337.104 226.579 324.823 220.924C325.123 221.265 331.563 226.157 342.204 222.983C333.053 233.821 320.733 231.491 310.993 226.197Z" fill="#E45748"/>
<path d="M355.661 153.822C355.671 153.822 369.512 152.426 379.192 163.897C388.062 174.685 383.582 184.127 394.773 198.371C406.253 192.083 419.824 185.996 432.464 179.597C432.614 179.657 429.024 167.915 419.763 152.436C410.263 136.947 395.663 127.766 385.482 127.254C375.462 135.752 364.611 144.531 355.661 153.822Z" fill="#FEDED2"/>
<g opacity="0.5">
<path d="M365.621 151.772C365.391 151.943 365.051 151.932 364.821 151.742C364.571 151.541 364.541 151.199 364.771 150.988C371.751 144.369 379.381 137.97 386.581 131.692C386.821 131.491 387.171 131.481 387.381 131.672C387.591 131.863 387.581 132.174 387.351 132.385C380.211 138.694 372.621 145.112 365.681 151.742C365.661 151.742 365.641 151.752 365.621 151.772Z" fill="#FB8F67"/>
<path d="M371.202 154.572C370.972 154.743 370.602 154.723 370.372 154.522C370.132 154.301 370.122 153.97 370.362 153.769C377.962 147.25 386.112 140.911 393.512 134.613C393.752 134.412 394.092 134.422 394.302 134.633C394.512 134.834 394.492 135.166 394.272 135.357C386.912 141.685 378.812 148.043 371.242 154.562C371.222 154.562 371.212 154.562 371.202 154.572Z" fill="#FB8F67"/>
<path d="M392.802 145.993C387.372 150.081 381.731 154.17 376.281 158.318C376.031 158.509 375.652 158.469 375.422 158.238C375.192 158.007 375.212 157.665 375.452 157.484C380.912 153.346 386.572 149.258 392.012 145.18C392.262 144.999 392.631 145.029 392.841 145.26C393.071 145.481 393.042 145.812 392.802 145.993Z" fill="#FB8F67"/>
<path d="M408.173 145.834C408.163 145.844 408.153 145.854 408.133 145.864C399.703 151.71 390.142 157.406 381.022 163.201C380.762 163.372 380.382 163.302 380.172 163.051C379.962 162.8 380.022 162.468 380.272 162.297C389.402 156.502 398.973 150.816 407.403 144.98C407.643 144.809 408.003 144.87 408.203 145.111C408.393 145.352 408.383 145.663 408.173 145.834Z" fill="#FB8F67"/>
<path d="M414.853 152.614C414.833 152.635 414.813 152.645 414.793 152.655C405.643 158.29 395.332 163.744 385.572 169.279C385.302 169.429 384.932 169.349 384.732 169.088C384.542 168.837 384.612 168.505 384.872 168.345C394.642 162.81 404.953 157.366 414.083 151.72C414.333 151.57 414.693 151.65 414.893 151.901C415.073 152.142 415.043 152.444 414.853 152.614Z" fill="#FB8F67"/>
<path d="M405.002 167.801C404.982 167.821 404.952 167.831 404.922 167.851C399.712 170.593 394.462 173.315 389.392 176.067C389.122 176.218 388.752 176.128 388.572 175.867C388.392 175.605 388.452 175.274 388.732 175.133C393.802 172.381 399.052 169.659 404.252 166.917C404.532 166.766 404.902 166.856 405.092 167.118C405.262 167.349 405.212 167.64 405.002 167.801Z" fill="#FB8F67"/>
<path d="M423.193 168.952C423.163 168.972 423.133 168.992 423.103 169.012C412.823 174.055 401.843 178.926 391.812 183.908C391.532 184.049 391.182 183.949 391.022 183.687C390.862 183.426 390.952 183.105 391.222 182.974C401.252 177.982 412.223 173.1 422.453 168.048C422.733 167.907 423.103 168.008 423.283 168.279C423.433 168.52 423.393 168.801 423.193 168.952Z" fill="#FB8F67"/>
<path d="M426.004 175.775C425.984 175.795 425.954 175.805 425.934 175.826C415.813 181.139 405.133 186.282 395.542 191.515C395.272 191.656 394.932 191.586 394.772 191.345C394.612 191.104 394.692 190.792 394.962 190.642C404.533 185.388 415.183 180.235 425.263 174.901C425.544 174.751 425.924 174.841 426.104 175.092C426.274 175.323 426.224 175.615 426.004 175.775Z" fill="#FB8F67"/>
</g>
<path d="M36.769 113.901C36.699 113.701 44.4793 113.972 48.3795 124.127C51.7696 133.187 49.0895 140.972 54.6497 151.75C58.7798 145.512 64.9501 140.369 72.7103 136.884C72.7003 136.793 73.8704 130.274 73.7704 120.029C73.7804 110.084 65.7801 97.5988 58.3498 93.5508C49.4295 98.4325 42.0292 105.434 36.769 113.901Z" fill="#FEDED2"/>
<path d="M42.3088 112.651C42.1688 112.781 41.9788 112.751 41.8688 112.55C41.7488 112.339 41.7688 112.018 41.9088 111.837C46.3388 106.252 51.8388 101.521 58.1688 97.8849C58.3788 97.7744 58.6188 97.8548 58.7188 98.0858C58.8188 98.3068 58.7388 98.5881 58.5388 98.6986C52.2288 102.315 46.7588 107.036 42.3488 112.6C42.3288 112.631 42.3188 112.641 42.3088 112.651Z" fill="#F46B5D"/>
<path d="M45.0788 115.634C44.9288 115.775 44.7388 115.725 44.6388 115.524C44.5288 115.313 44.5588 115.001 44.7088 114.841C49.5188 109.607 55.4388 105.308 62.1988 102.224C62.4188 102.134 62.6488 102.234 62.7388 102.445C62.8288 102.666 62.7288 102.918 62.5188 103.008C55.7888 106.092 49.8888 110.381 45.1088 115.614C45.0888 115.624 45.0888 115.634 45.0788 115.634Z" fill="#F46B5D"/>
<path d="M58.8993 111.023C54.6393 113.283 50.7893 116.056 47.4293 119.26C47.2793 119.401 47.0793 119.35 46.9793 119.139C46.8793 118.928 46.9293 118.637 47.0793 118.486C50.4593 115.282 54.3293 112.51 58.6093 110.26C58.7993 110.159 59.0193 110.25 59.0993 110.461C59.1793 110.672 59.0893 110.923 58.8993 111.023Z" fill="#F46B5D"/>
<path d="M68.6192 113.764C68.6092 113.764 68.5992 113.774 68.5892 113.774C61.2392 115.843 54.7492 119.218 49.4092 123.618C49.2592 123.748 49.0692 123.678 48.9892 123.457C48.9092 123.246 48.9692 122.965 49.1192 122.834C54.5092 118.445 61.0292 115.09 68.4092 113.051C68.6192 112.99 68.8392 113.111 68.8892 113.312C68.9292 113.503 68.8092 113.694 68.6192 113.764Z" fill="#F46B5D"/>
<path d="M70.6393 119.273C70.6193 119.283 70.6093 119.283 70.5893 119.293C63.0893 121.211 56.5093 124.456 51.1093 128.725C50.9593 128.845 50.7793 128.765 50.7093 128.554C50.6393 128.343 50.6993 128.072 50.8493 127.961C56.2893 123.702 62.9193 120.488 70.4493 118.61C70.6593 118.56 70.8593 118.67 70.8993 118.861C70.9293 119.022 70.8193 119.202 70.6393 119.273Z" fill="#F46B5D"/>
<path d="M61.2295 128.271C61.2095 128.281 61.1995 128.291 61.1795 128.301C57.9695 129.978 55.0395 131.947 52.4395 134.167C52.2995 134.288 52.1295 134.217 52.0595 134.016C51.9895 133.815 52.0395 133.544 52.1895 133.434C54.8195 131.214 57.7695 129.265 61.0095 127.598C61.1795 127.507 61.3595 127.598 61.4095 127.789C61.4395 127.959 61.3695 128.16 61.2295 128.271Z" fill="#F46B5D"/>
<path d="M70.5993 130.107C70.5793 130.117 70.5593 130.128 70.5293 130.138C63.6693 132.468 57.7993 135.964 53.1493 140.333C53.0193 140.454 52.8693 140.393 52.7993 140.192C52.7293 139.991 52.7793 139.73 52.9093 139.62C57.6093 135.27 63.5293 131.805 70.4293 129.515C70.6193 129.455 70.7893 129.545 70.8193 129.716C70.8493 129.866 70.7593 130.027 70.5993 130.107Z" fill="#F46B5D"/>
<path d="M70.3795 134.397C70.3595 134.407 70.3495 134.417 70.3295 134.427C63.9795 137.33 58.6995 141.348 54.7095 146.179C54.5995 146.31 54.4495 146.28 54.3795 146.089C54.3095 145.908 54.3395 145.647 54.4595 145.516C58.4895 140.705 63.8195 136.707 70.1995 133.834C70.3795 133.754 70.5495 133.824 70.5795 133.985C70.6195 134.136 70.5295 134.306 70.3795 134.397Z" fill="#F46B5D"/>
<path d="M96.1895 132.619L96.9468 136.41L138.884 127.96L138.127 124.168L96.1895 132.619Z" fill="#FEDED2"/>
<path d="M138.873 127.953L141.743 125.984C142.193 125.673 142.053 124.97 141.523 124.859L138.123 124.156L138.873 127.953Z" fill="#868FB3"/>
<path d="M96.0809 132.121C97.3909 131.86 98.6709 132.714 98.9409 134.03C99.2009 135.346 98.3509 136.631 97.0409 136.903C95.7309 137.164 94.4509 136.31 94.1809 134.994C93.9109 133.668 94.7609 132.382 96.0809 132.121Z" fill="#868FB3"/>
<path d="M111.671 128.979C111.561 129.401 111.251 129.803 110.621 130.094C109.751 130.496 108.211 130.285 106.261 130.014C103.981 129.693 101.401 129.331 99.5709 129.964C98.0909 130.476 97.1109 131.179 96.7509 131.973C96.4809 132.575 96.6509 133.038 96.6509 133.038C96.7309 133.238 96.6409 133.459 96.4409 133.54C96.2409 133.62 96.0209 133.53 95.9409 133.329C95.9309 133.299 95.6409 132.565 96.0509 131.651C96.5009 130.637 97.6009 129.823 99.3209 129.231C101.331 128.527 104.011 128.909 106.371 129.241C108.051 129.472 109.641 129.703 110.301 129.391C110.831 129.14 111.051 128.768 110.911 128.347C110.781 127.945 110.371 127.643 110.061 127.704C109.851 127.744 109.651 127.613 109.601 127.402C109.561 127.191 109.691 126.991 109.901 126.94C110.601 126.79 111.381 127.302 111.641 128.085C111.731 128.367 111.751 128.668 111.671 128.979Z" fill="#868FB3"/>
<path d="M120.212 127.773C120.212 127.773 127.772 124.378 137.662 124.258Z" fill="#FEDED2"/>
<path d="M120.972 131.57C120.972 131.57 129.252 131.771 138.422 128.055Z" fill="#FEDED2"/>
<path d="M275.904 335.619C275.904 335.619 265.995 322.331 269.501 305.948C269.501 305.948 280.809 313.76 278.505 336.716" fill="#FEC302"/>
<path d="M281.098 337.819C281.098 337.819 297.485 335.643 306.696 321.666C306.696 321.666 293.228 319.006 278.506 336.718" fill="#FEC302"/>
<path d="M277.641 334.898C277.641 334.898 273.175 318.906 282.334 304.906C282.334 304.906 290.067 316.292 279.672 336.869" fill="#FEC302"/>
<path d="M280.69 336.23C280.69 336.23 295.001 327.912 298.167 311.458C298.167 311.458 284.717 314.189 277.867 336.213" fill="#FEC302"/>
<path d="M295.122 340.391L265.694 330.316L257.306 355.036L286.734 365.11L295.122 340.391Z" fill="#FEDED2"/>
<path d="M295.125 340.386L289.341 338.406L280.954 363.126L286.737 365.105L295.125 340.386Z" fill="#FECAB7"/>
<path d="M282.878 65.9413C280.908 65.4692 279.138 65.7504 277.628 66.7649C276.138 67.7594 275.178 69.3062 274.558 70.6924L271.738 68.131L253.877 94.0364L281.248 108.22L284.408 107.165L294.708 92.2183L294.578 88.8835L290.728 85.3879C290.878 83.9615 291.028 81.9928 290.968 80.3957C290.728 74.2784 289.898 67.6087 282.878 65.9413ZM288.738 80.476C288.768 81.4001 288.728 82.485 288.648 83.4995L276.308 72.2895C276.758 71.044 277.558 69.4871 278.858 68.6232C279.848 67.9603 280.998 67.7995 282.358 68.121C287.348 69.2962 288.478 73.5451 288.738 80.476Z" fill="#FEDED2"/>
<path d="M54.8703 214.508L52.2903 249.042C52.5203 251.312 48.4301 253.592 39.8898 254.466C31.3295 255.34 26.8593 253.933 26.6293 251.663L17.189 218.355L54.8703 214.508Z" fill="#FEDED2"/>
<path d="M54.8702 214.497C55.1502 217.26 46.9399 220.363 36.5396 221.428C26.1392 222.493 17.4789 221.107 17.1989 218.344C16.9188 215.582 25.1191 212.478 35.5295 211.413C45.9299 210.349 54.5902 211.735 54.8702 214.497Z" fill="#EEEEEE"/>
<path d="M52.9604 214.7C53.2105 217.181 45.8402 219.974 36.4898 220.928C27.1395 221.882 19.3592 220.637 19.1092 218.156C18.8592 215.674 26.2295 212.882 35.5798 211.928C44.9302 210.974 52.7104 212.209 52.9604 214.7Z" fill="#868FB3"/>
<path d="M22.2606 202.77C22.2606 202.77 8.16182 194.223 5.99787 184.569C3.83034 174.925 13.7858 168.452 20.1838 174.615C26.591 180.782 23.269 193.391 27.0688 198.532C30.878 203.677 29.0844 207.817 22.2606 202.77Z" fill="#FEC303"/>
<path d="M29.6689 221.242C29.6689 221.242 33.9991 220.629 36.7992 215.205C38.7993 211.348 38.2693 199.324 41.0794 192.343C43.8795 185.362 54.3999 185.643 58.71 192.966C63.0202 200.288 57.69 213.598 47.4296 218.7C47.4396 218.7 40.5793 221.171 29.6689 221.242Z" fill="#FEC303"/>
<path d="M71.4698 301.439L67.2998 301.398L69.2598 305.105L71.4698 301.439Z" fill="#868FB3"/>
<path d="M117.552 332.105C118.162 331.091 117.842 329.775 116.842 329.162L115.372 328.268C114.362 327.655 113.052 327.977 112.442 328.981C111.832 329.996 112.152 331.312 113.152 331.924L114.622 332.818C115.622 333.441 116.932 333.12 117.552 332.105Z" fill="#868FB3"/>
<path d="M112.91 331.777L115.129 328.113L71.4897 301.448L69.2705 305.112L112.91 331.777Z" fill="#FB8F67"/>
<defs>
<linearGradient id="paint0_linear_470_63" x1="317.447" y1="227.874" x2="287.657" y2="252.481" gradientUnits="userSpaceOnUse">
<stop stop-color="#E29F1A"/>
<stop offset="1" stop-color="#FFC401" stop-opacity="0"/>
</linearGradient>
</defs>
</svg>
