<svg width="18" height="14" viewBox="0 0 18 14" fill="none" xmlns="http://www.w3.org/2000/svg">
    <path d="M2.33333 1.99935L7.42303 5.8429L7.42473 5.84431C7.98987 6.25875 8.27261 6.4661 8.5823 6.54619C8.85602 6.61699 9.14376 6.61699 9.41748 6.54619C9.72744 6.46602 10.011 6.25808 10.5771 5.8429C10.5771 5.8429 13.8417 3.33763 15.6667 1.99935M1.5 10.1662V3.83284C1.5 2.89942 1.5 2.43237 1.68166 2.07585C1.84144 1.76224 2.09623 1.50746 2.40983 1.34767C2.76635 1.16602 3.23341 1.16602 4.16683 1.16602H13.8335C14.7669 1.16602 15.233 1.16602 15.5895 1.34767C15.9031 1.50746 16.1587 1.76224 16.3185 2.07585C16.5 2.43202 16.5 2.89851 16.5 3.83011V10.169C16.5 11.1006 16.5 11.5664 16.3185 11.9226C16.1587 12.2362 15.9031 12.4914 15.5895 12.6512C15.2333 12.8327 14.7675 12.8327 13.8359 12.8327H4.16409C3.23249 12.8327 2.766 12.8327 2.40983 12.6512C2.09623 12.4914 1.84144 12.2362 1.68166 11.9226C1.5 11.5661 1.5 11.0996 1.5 10.1662Z"
          stroke="white" stroke-width="2" stroke-linecap="round" stroke-linejoin="round"/>
</svg>
