<svg width="477" height="556" viewBox="0 0 477 556" fill="none" xmlns="http://www.w3.org/2000/svg">
<rect width="477" height="556" fill="white"/>
<path d="M356.028 444.264C340.899 457.411 322.497 459.163 274.337 457.447C184.299 454.243 159.27 444.948 146.895 431.082C141.475 425.01 133.682 416.267 133.825 404.717C133.938 395.639 139.221 390.988 137.091 381.646C135.365 374.08 131.451 372.334 127.286 365.17C118.195 349.527 126.905 340.737 120.754 322.328C115.149 305.576 106.975 309.986 101.15 292.669C96.4564 278.731 96.5873 260.508 104.417 246.534C107.13 241.691 108.022 242.255 110.949 236.645C118.802 221.603 114.245 213.964 120.754 206.986C126.019 201.34 134.057 200.908 143.629 200.398C151.215 199.99 159.794 199.528 166.504 203.692C185.126 215.248 175.553 253.848 186.108 256.422C191.843 257.82 198.625 247.404 199.178 246.534C205.806 236.141 202.968 225.641 202.445 213.58C201.856 200.026 206.407 185.865 215.515 157.556C222.857 134.738 226.7 123.151 235.119 114.715C239.14 110.683 253.841 95.9583 274.331 98.2384C287.925 99.7505 297.04 107.965 300.473 111.421C303.477 112.387 326.245 120.061 333.147 141.08C333.837 143.186 338.394 157.046 333.147 170.739C330.88 176.655 327.965 179.469 326.608 187.215C325.127 195.718 327.81 197.086 326.608 203.692C325.032 212.344 320.189 211.318 310.271 226.763C304.06 236.435 303.798 240.197 297.201 246.534C292.792 250.77 290.853 251.052 290.668 253.122C290.079 259.524 308.207 264.102 333.147 276.193C350.15 284.431 358.652 288.553 362.555 292.669C375.108 305.9 368.421 316.664 375.625 375.058C377.797 392.681 379.653 401.765 375.625 414.605C375.352 415.487 369.908 432.204 356.028 444.264Z" fill="#FFFDFD"/>
<path d="M243.139 149.126C226.653 191.565 208.341 259.05 221.072 337.838C223.702 354.117 227.391 369.202 231.662 383.038C250.195 373.906 268.733 364.773 287.265 355.647C286.694 337.436 284.624 322.838 282.851 312.92C277.455 282.715 270.101 269.418 275.789 249.719C278.888 238.997 282.434 238.193 287.265 227.465C293.536 213.538 298.069 191.517 288.146 157.142C273.147 154.466 258.143 151.796 243.139 149.126Z" fill="#D3805B"/>
<path d="M249.314 171.375C250.611 170.505 253.027 168.879 256.376 168.705C258.452 168.597 259.702 169.233 263.438 170.487C270.327 172.797 270.434 172.251 272.267 173.157C279.4 176.703 280.828 186.597 281.096 186.507C281.566 186.351 278.686 153.992 265.211 150.902C250.718 147.578 232.21 180.015 233.435 181.167C233.947 181.659 239.069 178.233 249.314 171.375Z" fill="#561E15"/>
<path d="M319.041 161.588C318.047 150.998 320.677 145.946 317.274 142.898C316.06 141.812 315.108 141.896 313.746 140.228C311.729 137.762 312.544 136.022 311.098 133.999C309.623 131.935 308.207 132.943 302.269 130.441C299.83 129.409 296.582 128.005 293.441 125.101C292.126 123.883 292.197 123.673 290.793 122.431C289.782 121.537 287.646 119.797 283.731 117.979C282.779 117.535 280.364 116.461 272.255 114.421C267.43 113.203 265.02 112.597 264.312 112.639C260.701 112.855 257.149 115.753 250.189 121.543C247.702 123.613 245.304 125.617 242.246 128.665C239.248 131.653 236.338 134.552 234.304 137.57C230.371 143.396 231.858 146.462 229.009 159.824C227.545 166.683 225.891 171.789 223.714 178.515C219.442 191.715 218.692 190.251 217.538 196.318C215.468 207.148 218.098 210.46 214.891 217.684C213.856 220.012 212.267 222.635 212.243 226.589C212.226 229.181 212.898 230.279 212.243 232.817C211.583 235.385 210.441 236.039 210.476 238.157C210.482 238.607 210.56 239.771 212.243 242.609C214.546 246.491 215.694 248.429 217.538 248.837C220.924 249.593 225.629 245.321 226.367 240.827C226.909 237.521 224.91 236.489 223.72 231.035C222.774 226.685 223.172 223.319 223.72 218.572C224.481 211.984 226.242 207.076 227.248 204.328C229.217 198.952 230.014 198.85 231.662 193.648C233.405 188.151 232.787 187.395 234.31 183.855C235.987 179.949 238.147 177.591 241.372 174.063C243.763 171.447 247.226 167.715 252.848 164.271C255.644 162.56 259.791 160.412 265.205 158.93C265.865 160.364 266.996 162.614 268.733 165.159C271.368 169.017 272.624 169.479 274.908 173.169C275.985 174.909 276.806 176.703 278.436 180.291C278.668 180.801 279.787 183.171 281.084 186.519C282.446 190.035 283.13 191.799 283.731 193.642C285.052 197.68 286.045 200.704 286.379 204.322C286.748 208.258 285.974 208.996 285.498 215.002C284.975 221.639 285.724 223.187 285.706 225.917C285.706 225.917 285.671 227.135 285.498 228.359C284.79 233.465 274.682 242.453 275.789 244.379C276.723 246.005 286.105 243.419 289.913 238.151C290.174 237.785 290.484 237.311 290.537 237.227C291.388 235.817 291.9 234.149 294.327 228.359C295.725 225.023 297.201 221.716 297.855 220.348C303.906 207.748 314.43 205.648 313.74 198.982C313.561 197.224 312.443 195.436 310.212 191.859C307.457 187.449 305.197 185.721 305.797 183.849C306.226 182.505 307.701 182.415 310.212 181.179C314.573 179.037 318.589 175.155 319.921 171.387C320.897 168.633 319.66 168.147 319.041 161.588Z" fill="#F9B5AA"/>
<path d="M251.509 223.637C250.896 221.183 253.473 220.763 254.329 222.797C254.466 223.121 254.805 223.997 254.448 224.339C253.847 224.915 252.961 223.589 252.11 223.643" fill="#561E15"/>
<path d="M284.79 211.402C284.683 209.59 284.421 207.52 283.91 203.392C283.219 197.848 282.904 196.696 282.143 195.382C280.858 193.168 279.923 193.324 278.615 190.93C277.008 188.002 277.883 186.82 276.848 184.702C276.044 183.057 274.825 182.337 264.491 178.473C258.125 176.091 256.846 175.707 254.781 175.803C252.14 175.923 249.968 176.739 247.719 177.585C245.358 178.473 243.061 179.295 240.658 181.143C237.772 183.369 236.255 185.866 235.363 187.372C233.851 189.916 233.53 191.416 232.864 194.11C233.744 192.256 235.089 190.588 236.963 190.078C238.064 189.778 238.379 190.138 242.258 190.966C248.243 192.25 248.903 191.692 250.2 192.748C252.705 194.794 252.955 199.096 252.134 202.06C251.069 205.9 247.827 208.816 244.025 209.656C240.408 210.46 235.981 209.452 233.435 206.098C231.371 203.38 231.43 200.29 231.585 198.76C231.4 199.366 231.192 200.02 230.954 200.728C229.05 206.452 228.568 206.176 227.426 210.52C226.974 212.23 226.04 216.113 225.659 221.201C225.32 225.737 225.582 229.175 225.659 230.105C225.879 232.763 226.147 235.973 227.426 239.897C228.217 242.321 229.247 245.484 231.841 248.802C233.364 250.752 237.118 254.916 243.317 256.812C246.643 257.832 249.284 257.766 252.146 257.7C257.792 257.568 262.034 256.152 265.383 255.03C268.162 254.1 269.667 253.584 271.559 252.36C275.378 249.888 277.347 246.762 277.734 246.132C279.602 243.077 279.329 241.499 281.262 235.451C282.857 230.465 283.095 231.281 283.91 228.329C285.468 222.647 285.177 217.835 284.79 211.402ZM244.019 221.225C244.096 220.259 245.399 219.629 245.786 219.443C246.208 219.239 247.464 218.717 250.2 219.443C254.906 220.691 257.001 223.757 256.935 223.979C256.905 224.087 256.852 224.195 256.852 224.195C256.816 224.267 256.78 224.333 256.739 224.399C256.709 224.651 256.501 224.879 256.263 224.885C254.621 225.365 252.265 225.749 249.647 225.083C247.315 224.495 243.888 222.857 244.019 221.225ZM262.557 240.809C261.992 242.687 259.838 243.474 257.262 244.368C254.978 245.166 250.516 246.72 244.905 245.256C243.668 244.932 238.67 243.498 235.196 239.027C234.202 237.749 233.007 236.165 233.429 234.575C233.81 233.135 235.452 232.409 238.724 231.017C242.139 229.559 243.852 228.803 245.786 229.235C247.618 229.649 247.88 230.603 250.2 231.017C252.36 231.401 252.824 230.699 254.615 231.017C257.292 231.491 259.005 233.519 259.91 234.575C261.106 235.985 263.253 238.493 262.557 240.809ZM283.023 207.844C282.862 208.648 282.464 209.242 282.143 209.626C281.554 210.55 280.447 212.008 278.615 213.184C277.859 213.664 276.241 214.577 273.32 214.967C272.868 215.027 262.902 216.215 258.315 210.514C257.667 209.704 256.281 207.982 256.548 206.062C256.679 205.156 257.221 203.884 257.429 203.392C257.75 202.636 258.071 202.03 258.309 201.61C258.553 201.046 258.845 200.452 259.19 199.828C259.767 198.79 260.374 197.902 260.957 197.158C261.147 196.912 261.433 196.588 261.837 196.27C261.98 196.156 262.617 195.676 263.604 195.382C265.05 194.95 266.311 195.208 267.132 195.382C268.501 195.676 268.62 196 269.78 196.27C270.898 196.534 272.07 196.534 273.308 196.27C273.891 196.12 274.855 195.964 275.955 196.27C276.764 196.492 277.318 196.876 277.722 197.158C278.591 197.77 279.156 198.46 279.489 198.94C279.822 199.264 280.06 199.576 280.209 199.87C280.382 200.206 283.517 205.42 283.023 207.844Z" fill="#FFCFDC"/>
<path d="M231.662 198.082C231.638 198.244 231.609 198.472 231.579 198.754C232.174 196.816 232.555 195.334 232.864 194.104C232.221 195.454 231.829 196.9 231.662 198.082Z" fill="#8C3533"/>
<path d="M246.881 222.239C247.178 221.099 246.56 220.241 245.376 220.373C244.828 221.399 245.614 222.149 246.696 222.053" fill="#561E15"/>
<path d="M252.848 232.799C252.069 232.667 251.896 232.877 250.343 232.691C249.219 232.553 248.41 232.385 247.571 232.199C246.928 232.061 246.637 231.971 246.292 231.929C246.292 231.929 245.941 231.893 245.59 231.893C244.37 231.899 241.621 233.225 240.491 233.693C237.867 234.773 236.184 234.401 236.083 235.091C236.017 235.511 236.606 235.859 237.665 236.687C239.396 238.043 239.462 238.625 240.836 239.885C241.526 240.521 243.466 242.297 246.381 243.083C249.35 243.881 251.932 243.275 252.717 243.083C254.401 242.669 255.507 242.255 257.471 241.487C260.523 240.293 260.725 240.215 260.79 239.927C260.957 239.165 259.791 238.727 257.262 236.369C254.799 234.065 254.383 233.057 252.848 232.799Z" fill="#F14A6C"/>
<path d="M260.79 211.21C260.755 211.03 261.986 210.436 263.438 210.322C264.764 210.214 265.812 210.544 267.852 211.21C269.53 211.756 269.56 211.918 270.5 212.098C270.946 212.182 272.177 212.386 274.028 212.098C277.276 211.594 279.192 210.106 279.323 210.316C279.448 210.514 277.942 212.014 275.795 212.986C274.73 213.466 272.285 214.57 269.619 213.874C267.115 213.226 266.996 211.66 264.324 211.204C262.391 210.88 260.832 211.414 260.79 211.21Z" fill="#561E15"/>
<path d="M247.547 207.64C247.63 207.49 246.809 206.632 245.667 206.122C244.626 205.66 243.68 205.648 241.83 205.654C240.307 205.66 240.235 205.792 239.42 205.684C239.033 205.63 237.98 205.462 236.558 204.694C234.078 203.344 232.971 201.508 232.798 201.658C232.644 201.796 233.411 203.524 234.863 204.976C235.583 205.696 237.237 207.34 239.605 207.49C241.83 207.628 242.383 206.302 244.685 206.656C246.345 206.902 247.452 207.802 247.547 207.64Z" fill="#561E15"/>
<path d="M247.559 206.356C246.673 206.008 248.243 203.11 246.679 201.016C244.602 198.238 238.272 198.544 236.089 200.128C235.898 200.266 235.279 200.746 234.322 201.016C233.257 201.322 231.787 201.37 231.674 201.016C231.406 200.176 238.201 195.094 244.912 196.564C245.512 196.696 250.558 197.8 251.087 201.016C251.539 203.752 248.523 206.74 247.559 206.356Z" fill="#BB644A"/>
<path d="M258.143 203.422C257.667 204.418 257.161 205.522 257.262 206.98C257.274 207.172 257.494 210.034 259.029 210.538C260.505 211.03 262.343 209.05 263.444 207.868C265.223 205.954 264.895 205.252 266.091 204.31C268.179 202.66 272.017 202.54 274.034 204.31C276.39 206.374 275.116 210.004 276.681 210.538C278.121 211.03 281.036 208.57 281.096 206.086C281.191 202.006 273.534 199.396 272.267 198.964C269.821 198.13 265.246 196.57 261.677 198.964C259.594 200.368 258.494 202.678 258.143 203.422Z" fill="#BB644A"/>
<path d="M356.028 315.734C354.225 305.551 353.166 300.823 349.495 295.963C341.708 285.661 329.97 284.509 318.166 280.872C306.719 277.344 291.096 270.198 274.033 254.166C270.506 282.055 266.972 309.949 263.444 337.838C253.026 312.122 244.453 295.999 237.849 285.319C234.684 280.2 227.997 269.898 226.373 255.054C225.76 249.455 226.04 244.775 226.373 241.703C222.863 243.977 217.669 247.715 212.249 253.278C206.056 259.632 205.669 262.116 200.773 266.628C193.342 273.486 189.737 271.92 179.587 278.202C171.656 283.111 166.974 288.331 159.288 296.893C151.762 305.281 150.965 307.975 147.794 312.224C145.313 315.542 144.325 316.058 142.522 318.26C139.887 321.47 134.931 327.506 135.811 333.506C136.555 338.564 140.743 338.828 141.535 345.057C142.017 348.843 140.553 349.425 141.535 352.275C142.939 356.361 146.419 356.529 148.692 360.939C149.822 363.135 149.638 364.413 150.126 368.157C151.446 378.34 154.26 380.086 154.421 385.48C154.641 392.884 148.109 396.406 147.264 401.363C144.985 414.731 186.108 431.094 186.108 431.094C237.135 441.99 278.192 442.962 306.148 441.786C329.238 440.814 343.249 438.378 352.762 427.799C364.071 415.217 363.566 397.186 362.566 361.887C362.251 350.919 360.175 339.188 356.028 315.734Z" fill="#F9B5AA"/>
<path d="M260.79 200.752C261.254 201.55 262.771 201.172 267.852 200.752C273.165 200.314 274.165 200.512 274.914 200.752C276.199 201.166 278.252 202.198 280.209 205.204C280.013 203.242 279.335 199.714 276.681 198.082C275.634 197.44 275.224 197.668 270.506 197.194C265.246 196.66 263.991 196.198 262.563 197.194C261.237 198.112 260.297 199.906 260.79 200.752Z" fill="#561E15"/>
<path d="M250.563 198.922C249.891 199.528 248.677 198.688 244.328 196.69C239.777 194.596 238.837 194.464 238.093 194.458C236.82 194.44 234.667 194.764 231.942 196.978C232.769 195.19 234.542 192.082 237.421 191.386C238.557 191.11 238.843 191.458 243.174 192.502C247.993 193.666 249.254 193.624 250.189 195.016C251.045 196.288 251.283 198.28 250.563 198.922Z" fill="#561E15"/>
<path d="M260.029 239.364C259.369 239.43 258.702 239.442 258.036 239.394C257.37 239.352 256.709 239.22 256.061 239.07C255.412 238.92 254.77 238.722 254.151 238.446C253.842 238.308 253.544 238.152 253.253 237.984C252.961 237.816 252.681 237.63 252.402 237.449C251.973 237.161 251.545 236.867 251.075 236.711C250.843 236.633 250.599 236.597 250.355 236.615C250.23 236.621 250.105 236.639 249.98 236.657L249.79 236.687L249.695 236.705L249.647 236.717L249.623 236.723H249.612H249.606C249.612 236.723 249.617 236.717 249.623 236.717C249.647 236.705 249.671 236.675 249.677 236.651L249.6 236.723C249.35 236.783 249.112 236.891 248.85 236.987C248.588 237.083 248.309 237.131 248.035 237.143C247.761 237.155 247.482 237.131 247.214 237.053C246.946 236.975 246.696 236.849 246.464 236.711C246.232 236.573 246.012 236.429 245.774 236.309C245.542 236.189 245.298 236.087 245.042 236.021C244.537 235.877 244.001 235.823 243.484 235.919C242.966 236.015 242.46 236.213 241.931 236.303C241.401 236.405 240.86 236.423 240.325 236.393C239.254 236.327 238.207 236.021 237.237 235.565C238.213 236.009 239.26 236.291 240.325 236.339C240.854 236.363 241.389 236.333 241.913 236.225C242.437 236.129 242.93 235.919 243.466 235.811C244.001 235.703 244.555 235.751 245.078 235.889C245.34 235.955 245.596 236.057 245.84 236.177C246.084 236.297 246.316 236.441 246.542 236.573C246.774 236.705 247.006 236.819 247.256 236.885C247.505 236.951 247.761 236.969 248.023 236.957C248.285 236.945 248.535 236.891 248.779 236.801C249.023 236.711 249.272 236.591 249.54 236.519L249.463 236.591C249.469 236.567 249.499 236.537 249.522 236.525C249.528 236.525 249.534 236.519 249.54 236.519H249.546H249.558L249.582 236.513L249.629 236.501L249.725 236.483L249.921 236.447C250.052 236.429 250.177 236.405 250.314 236.393C250.587 236.369 250.867 236.405 251.129 236.489C251.652 236.651 252.098 236.951 252.533 237.239C252.806 237.431 253.074 237.624 253.354 237.798C253.633 237.972 253.919 238.134 254.216 238.278C254.805 238.566 255.43 238.788 256.073 238.956C256.715 239.124 257.358 239.274 258.018 239.34C258.702 239.394 259.369 239.406 260.029 239.364Z" fill="#D2635E"/>
<path d="M159.651 264.456C165.38 264.45 167.974 264.426 173.304 264.432C174.369 264.432 175.226 264.432 175.702 264.438C175.797 266.058 175.678 268.392 174.363 270.522C173.245 272.334 172.239 272.436 168.997 275.256C168.64 275.568 166.986 277.29 163.631 280.668C160.823 283.494 159.871 284.418 159.288 285.384C159.145 285.624 159.026 285.888 158.937 286.074C157.205 289.578 157.574 290.461 156.967 290.827C155.254 291.865 151.458 285.324 143.51 282.018C142.243 281.49 141.737 281.406 140.154 280.668C138.025 279.666 134.943 278.19 132.105 275.256C130.82 273.924 128.833 271.518 127.411 267.816C142.998 265.11 151.089 264.456 155.617 264.456C155.855 264.456 157.241 264.456 159.651 264.456Z" fill="#7A0303"/>
<path d="M127.459 217.786C127.744 222.592 127.738 227.404 127.566 232.211C127.518 233.411 127.465 234.617 127.393 235.817C127.328 237.017 127.245 238.217 127.149 239.417C127.06 240.617 126.947 241.811 126.84 243.011L126.489 246.593C126.364 247.781 126.245 248.969 126.144 250.157C126.031 251.345 125.942 252.527 125.87 253.703L125.841 254.147L125.829 254.591L125.799 255.473C125.781 255.767 125.793 256.061 125.787 256.355L125.781 257.237C125.793 257.826 125.817 258.408 125.841 258.996L125.906 259.872L125.942 260.31C125.954 260.454 125.977 260.598 125.995 260.742C126.257 263.064 126.81 265.35 127.637 267.558C128.44 269.778 129.547 271.896 130.82 273.93C129.208 272.154 127.851 270.12 126.781 267.936C125.698 265.752 124.936 263.388 124.514 260.958C124.079 258.528 124.008 256.061 124.074 253.631C124.109 252.413 124.187 251.207 124.276 250.001C124.371 248.795 124.484 247.601 124.603 246.401L125.365 239.255C125.614 236.879 125.852 234.497 126.084 232.115C126.543 227.35 126.959 222.574 127.459 217.786Z" fill="#C4C4C4"/>
<path d="M154.243 367.233C157.366 378.154 159.526 387.19 160.948 393.61C162.477 400.51 162.399 402.88 164.303 407.135C166.308 411.629 169.509 418.781 176.309 421.193C182.942 423.545 191.028 420.689 197.161 414.575C197.507 412.913 198.215 410.411 199.845 407.813C201.052 405.893 202.153 404.879 202.528 404.429C207.002 399.052 189.35 374.896 179.73 357.087C176.392 350.913 171.662 341.144 167.658 328.004C169.176 322.388 168.224 319.484 166.986 317.858C165.344 315.703 162.935 315.445 161.62 312.445C161.09 311.239 161.096 310.405 160.948 307.711C160.739 303.925 160.412 299.911 160.275 298.921C159.395 292.477 149.108 285.258 144.854 287.424C142.13 288.811 141.35 294.301 150.221 344.912C151.863 354.309 153.279 362.043 154.243 367.233Z" fill="#D3805B"/>
<path d="M152.09 360.05C152.072 359.918 152.054 359.78 152.036 359.648C152.012 359.774 151.994 359.906 151.988 360.044C152.018 360.044 152.054 360.05 152.09 360.05Z" fill="#D3805B"/>
<g opacity="0.93">
<path d="M157.634 289.477C159.258 305.851 160.341 318.626 160.989 326.672C162.227 342.068 163 353.967 169.265 356.535C169.991 356.835 178.629 360.189 182.972 359.319C183.454 359.223 185.072 358.845 186.149 359.721C186.845 360.291 187.065 361.191 187.143 361.839C186.25 362.289 185.352 362.739 184.46 363.189C178.463 364.869 171.24 366.417 163 367.245C153.19 368.235 144.539 367.953 137.519 367.245C137.507 366.741 137.573 365.841 138.191 365.217C138.816 364.587 139.697 364.563 140.202 364.539C142.005 364.461 143.778 364.077 145.569 363.861C147.925 363.585 149.549 362.511 151.601 361.155C152.744 360.405 155.415 358.605 157.39 355.431C160.615 350.253 159.942 344.696 159.645 342.896H159.77C158.163 325.538 156.557 308.179 154.951 290.821" fill="white"/>
</g>
<path d="M151.56 353.031C152.006 355.059 152.452 357.087 152.898 359.115C154.796 358.053 157.836 355.941 158.931 352.353C159.032 352.023 159.401 349.851 158.931 345.591C158.092 338.013 157.592 334.773 157.592 334.773C156.676 328.874 156.093 324.464 155.581 320.57C154.612 313.202 155.117 315.824 154.243 309.074C153.356 302.252 153.053 301.201 153.571 298.927C154.737 293.833 155.581 291.487 155.581 291.487C155.849 290.749 156.272 289.627 156.254 288.103C156.242 287.191 156.218 285.181 154.915 284.047C154.017 283.261 153.106 283.405 152.904 282.697C152.726 282.073 153.38 281.791 153.576 280.669C153.725 279.829 153.588 278.665 152.904 277.963C152.672 277.723 151.988 277.141 150.221 277.285C148.085 277.465 146.491 278.521 142.844 281.341C139.578 283.873 137.46 285.649 135.467 285.397C135.199 285.361 134.425 285.265 134.128 284.719C133.783 284.089 134.241 283.177 134.657 282.517C136.133 280.159 138.501 278.533 140.161 277.279C141.422 276.331 140.155 277.195 146.866 271.194C148.091 270.102 149.019 269.274 149.549 267.81C150.465 265.266 149.311 263.136 149.269 263.088C149.204 262.998 149.132 262.914 149.132 262.914C148.002 261.594 145.92 261.708 145.527 261.726C144.408 261.786 143.701 262.248 137.977 267.108C136.894 268.032 136.21 268.59 135.139 269.274C134.193 269.886 133.545 270.174 132.736 270.726C131.718 271.428 131.064 272.088 130.671 272.466C126.935 276.067 125.037 277.873 123.395 277.957C122.152 278.023 120.837 277.507 120.04 276.607C118.779 275.173 119.076 273.067 119.368 271.194C120.165 266.088 122.634 264.654 122.051 261.048C121.771 259.32 121.033 258.612 120.712 258.342C119.32 257.202 117.452 257.64 117.357 257.664C115.399 258.162 114.435 260.142 113.335 262.398C112.567 263.976 112.151 265.476 111.324 268.482C111.098 269.31 110.878 270.096 110.652 271.188C110.2 273.367 110.319 273.775 109.979 275.245C109.295 278.203 108.45 278.077 108.641 279.301C108.944 281.257 111.324 283.033 112.663 284.035C113.281 284.497 113.287 284.659 114.001 285.385C115.697 287.113 115.679 287.167 116.054 287.431C117.303 288.313 117.761 287.923 118.695 288.763C119.522 289.507 119.249 289.927 120.034 290.791C121.313 292.195 122.449 291.733 123.389 292.819C124.05 293.587 124.05 294.817 124.02 297.241C123.978 300.787 123.36 301.465 124.02 302.6C124.829 303.992 126.025 303.434 127.411 304.988C128.869 306.62 128.167 307.916 129.333 309.968C130.481 311.996 131.962 312.134 134.116 313.778C135.478 314.816 136.341 315.872 139.482 321.218C142.868 326.984 144.593 329.84 145.515 332.037C145.943 333.051 146.503 334.473 149.537 345.561C150.394 348.675 151.078 351.243 151.56 353.031Z" fill="#D3805B"/>
<path d="M152.059 360.801C152.113 361.053 152.19 361.317 152.303 361.605C152.268 361.341 152.232 361.077 152.196 360.813C152.149 360.813 152.107 360.807 152.059 360.801Z" fill="#D3805B"/>
<path d="M114.43 263.502C114.798 264.018 115.536 264.168 116.375 264.348C116.976 264.474 117.291 264.54 117.714 264.462C118.88 264.246 119.564 263.136 119.885 262.608C120.379 261.81 120.593 261.12 120.724 260.646C120.956 259.782 121.093 259.26 120.891 258.624C120.593 257.67 119.778 257.22 119.665 257.16C118.892 256.752 118.148 256.896 117.66 256.992C117.023 257.112 116.548 257.37 116.268 257.55C115.393 258.828 114.917 259.986 114.65 260.808C114.257 262.014 113.983 262.884 114.43 263.502Z" fill="#E4DCD9"/>
<path d="M140.167 266.148C139.744 266.838 139.138 267.828 139.494 268.854C139.816 269.766 140.696 270.15 140.833 270.204C141.547 270.504 142.196 270.36 142.844 270.204C143.177 270.126 143.641 269.982 145.527 268.854C146.604 268.206 147.151 267.876 147.538 267.504C148.157 266.904 148.734 266.346 148.877 265.476C149.109 264.096 148.157 262.481 146.866 262.091C146.366 261.941 145.956 262.013 145.527 262.091C145.099 262.169 144.23 262.385 142.172 264.12C141.119 265.014 140.577 265.476 140.167 266.148Z" fill="#E4DCD9"/>
<path d="M146.193 279.991C145.735 280.897 146.134 281.875 146.193 282.019C146.294 282.253 146.687 283.081 147.532 283.369C148.341 283.645 149.091 283.267 150.215 282.691C151.107 282.235 151.714 281.995 152.226 281.341C152.452 281.047 152.797 280.627 152.898 279.991C153.005 279.313 152.857 278.323 152.226 277.963C152.03 277.849 151.815 277.813 150.887 277.963C149.733 278.155 149.097 278.257 148.204 278.641C147.074 279.127 146.509 279.367 146.193 279.991Z" fill="#E4DCD9"/>
<path d="M150.048 289.087C150.572 289.825 151.637 289.855 152.357 289.513C152.868 289.273 153.202 288.757 153.874 287.731C154.415 286.903 154.683 286.489 154.814 285.841C154.891 285.45 155.076 284.55 154.6 283.74C154.261 283.158 153.648 282.738 152.993 282.756C152.077 282.78 151.47 283.638 150.899 284.43C150.626 284.814 150.019 285.691 149.84 286.987C149.739 287.695 149.626 288.493 150.048 289.087Z" fill="#E4DCD9"/>
<path d="M135.859 219.454C136.645 222.514 137.21 225.598 137.727 228.688C138.233 231.779 138.655 234.881 139.012 237.989C139.369 241.097 139.649 244.211 139.851 247.337C140.048 250.463 140.184 253.595 140.107 256.757C139.322 253.697 138.751 250.613 138.239 247.529C137.733 244.439 137.311 241.337 136.96 238.229C136.609 235.121 136.323 232.007 136.121 228.88C135.925 225.742 135.788 222.61 135.859 219.454Z" fill="#C4C4C4"/>
<path d="M164.345 213.73C166.338 220.205 168.301 226.667 170.407 233.075C171.46 236.297 172.424 239.561 173.269 242.849C173.697 244.494 174.084 246.144 174.477 247.794C174.863 249.438 175.244 251.082 175.649 252.714L175.952 253.938C176.065 254.37 176.154 254.808 176.238 255.234C176.398 256.092 176.523 256.95 176.624 257.814C176.809 259.536 176.886 261.276 176.827 263.01C176.821 263.226 176.815 263.442 176.803 263.658L176.761 264.306C176.737 264.738 176.684 265.17 176.642 265.602C176.553 266.466 176.416 267.342 176.196 268.218C175.976 269.094 175.643 269.97 175.191 270.768C174.976 271.158 174.685 271.596 174.375 271.938C174.072 272.286 173.757 272.598 173.441 272.899C172.811 273.493 172.168 274.051 171.526 274.597C170.877 275.143 170.235 275.689 169.574 276.217C168.259 277.285 166.939 278.317 165.648 279.391C164.351 280.459 163.036 281.515 161.882 282.697C161.311 283.291 160.787 283.951 160.299 284.629C159.811 285.307 159.371 286.027 158.967 286.771C159.579 285.193 160.418 283.693 161.483 282.343C162.019 281.665 162.614 281.053 163.208 280.453C163.809 279.853 164.416 279.265 165.023 278.683C166.249 277.519 167.522 276.403 168.747 275.263C169.979 274.123 171.228 272.988 172.376 271.818C172.662 271.524 172.936 271.23 173.174 270.936C173.418 270.636 173.584 270.36 173.763 270.006C174.12 269.316 174.37 268.596 174.542 267.828C174.709 267.06 174.81 266.256 174.881 265.434C174.911 265.026 174.953 264.618 174.964 264.204L174.994 263.586C175 263.382 175 263.172 175.006 262.968C175.024 262.146 174.994 261.318 174.958 260.496C174.905 259.674 174.845 258.852 174.738 258.036C174.637 257.22 174.518 256.404 174.364 255.6C174.286 255.198 174.203 254.802 174.102 254.418L173.786 253.182C173.382 251.532 173.001 249.876 172.632 248.226C172.263 246.576 171.889 244.932 171.508 243.293C171.121 241.655 170.711 240.023 170.294 238.397C169.866 236.771 169.426 235.145 168.967 233.519C167.147 226.991 165.564 220.397 164.345 213.73Z" fill="#C4C4C4"/>
<path d="M122.598 278.628C121.997 278.658 121.414 278.826 120.914 279.132C120.409 279.426 119.98 279.834 119.635 280.29C119.237 280.698 118.915 281.19 118.683 281.724C118.457 282.264 118.303 282.84 118.237 283.428C118.088 284.61 118.231 285.828 118.499 287.01C118.142 285.858 117.904 284.64 117.963 283.404C117.987 282.786 118.106 282.168 118.303 281.574C118.511 280.98 118.82 280.416 119.231 279.924C119.689 279.48 120.212 279.114 120.795 278.886C121.372 278.646 121.997 278.562 122.598 278.628Z" fill="#BE6D4C"/>
<path d="M134.675 285.883C133.468 286.537 132.29 287.227 131.153 287.983C128.738 289.243 126.435 290.725 124.27 292.405C126.322 290.587 128.535 288.937 130.891 287.509C132.123 286.903 133.396 286.369 134.675 285.883Z" fill="#BE6D4C"/>
<path d="M148.989 286.698C146.907 289.488 144.741 292.218 142.493 294.877C141.904 295.519 141.315 296.161 140.72 296.791C140.125 297.421 139.53 298.057 138.905 298.675C138.286 299.293 137.632 299.881 136.93 300.409C136.222 300.931 135.466 301.399 134.639 301.711C134.229 301.879 133.8 301.987 133.372 302.077L133.045 302.125C132.938 302.137 132.825 302.161 132.718 302.161C132.498 302.167 132.277 302.191 132.057 302.173C131.177 302.143 130.314 301.939 129.511 301.585C127.917 300.877 126.572 299.569 125.929 297.943C126.62 299.551 127.982 300.811 129.565 301.459C130.356 301.783 131.212 301.963 132.063 301.963C132.277 301.975 132.486 301.945 132.7 301.933C132.807 301.927 132.908 301.903 133.015 301.891L133.33 301.837C133.741 301.741 134.151 301.621 134.544 301.447C135.335 301.123 136.055 300.649 136.728 300.127C137.4 299.593 138.025 298.999 138.619 298.375C139.214 297.751 139.792 297.103 140.375 296.455C140.952 295.807 141.529 295.153 142.094 294.499C144.468 291.978 146.77 289.374 148.989 286.698Z" fill="#BE6D4C"/>
<path d="M147.068 309.422C145.801 309.902 144.331 309.872 143.052 309.332C141.767 308.792 140.708 307.712 140.143 306.398C139.887 305.726 139.774 305.006 139.78 304.297C139.786 303.589 139.917 302.887 140.119 302.221C140.535 300.883 141.231 299.683 141.993 298.549C142.76 297.421 143.593 296.341 144.295 295.183C144.997 294.031 145.586 292.771 145.777 291.415C145.628 292.777 145.081 294.067 144.408 295.249C143.736 296.437 142.939 297.553 142.213 298.693C141.493 299.839 140.857 301.045 140.506 302.329C140.333 302.971 140.232 303.631 140.25 304.285C140.262 304.94 140.393 305.588 140.642 306.182C141.077 307.4 141.981 308.474 143.165 309.068C144.349 309.68 145.771 309.812 147.068 309.422Z" fill="#BE6D4C"/>
<path d="M136.847 300.301C136.722 300.973 136.258 302.965 134.479 304.543C132.593 306.217 130.451 306.349 129.589 306.379C127.482 306.463 125.329 305.785 123.728 304.399C122.128 303.013 121.123 300.913 121.176 298.783C121.23 296.653 122.39 294.559 124.222 293.503C124.246 293.809 124.686 298.213 128.702 300.373C132.712 302.539 136.585 300.445 136.847 300.301Z" fill="#E4DCD9"/>
<path d="M123.479 293.899C121.878 294.865 120.206 294.475 119.385 294.289C117.767 293.917 116.262 292.957 115.328 291.577C114.388 290.191 114.049 288.385 114.525 286.783C114.995 285.175 116.304 283.819 117.91 283.393C117.862 283.723 117.416 287.071 119.927 289.543C122.17 291.751 125.037 291.547 125.46 291.505C125.257 291.997 124.716 293.155 123.479 293.899Z" fill="#E4DCD9"/>
<path d="M149.162 269.742C152.952 268.848 156.819 268.278 160.704 267.918C161.673 267.828 162.649 267.756 163.619 267.696C164.595 267.636 165.57 267.594 166.552 267.57C167.046 267.558 167.534 267.558 168.039 267.57C168.289 267.576 168.545 267.588 168.813 267.612C168.95 267.624 169.086 267.636 169.247 267.666C169.33 267.684 169.414 267.696 169.544 267.744C169.58 267.756 169.622 267.774 169.663 267.792C169.723 267.822 169.765 267.84 169.86 267.918C169.878 267.936 169.901 267.948 169.919 267.972C169.949 268.002 169.979 268.038 170.009 268.074C170.038 268.116 170.056 268.14 170.086 268.194C170.116 268.254 170.139 268.32 170.157 268.386C170.175 268.458 170.181 268.518 170.181 268.584C170.181 268.65 170.169 268.716 170.157 268.782C170.145 268.842 170.11 268.926 170.098 268.95C170.08 268.98 170.062 269.01 170.044 269.04C170.026 269.07 170.003 269.1 169.985 269.124C169.961 269.154 169.937 269.178 169.931 269.184C169.907 269.208 169.884 269.232 169.854 269.256C169.794 269.31 169.771 269.316 169.735 269.34L169.681 269.37L169.646 269.388L169.568 269.424C169.479 269.466 169.402 269.496 169.33 269.52C169.187 269.568 169.057 269.61 168.932 269.646C168.676 269.718 168.432 269.778 168.188 269.832C167.7 269.94 167.218 270.042 166.736 270.132C165.773 270.312 164.815 270.48 163.863 270.648C162.911 270.81 161.953 270.972 161.031 271.158C160.805 271.206 160.573 271.254 160.371 271.308C160.323 271.32 160.275 271.338 160.24 271.35C160.228 271.356 160.198 271.362 160.198 271.362C160.198 271.362 160.186 271.368 160.192 271.362C160.198 271.356 160.204 271.356 160.21 271.35C160.228 271.344 160.24 271.332 160.252 271.32L160.269 271.302C160.269 271.302 160.293 271.278 160.317 271.26C160.335 271.236 160.359 271.212 160.376 271.188C160.394 271.158 160.4 271.146 160.43 271.098C160.501 270.966 160.525 270.786 160.489 270.636C160.472 270.552 160.442 270.474 160.4 270.402C160.371 270.354 160.347 270.324 160.311 270.288C160.275 270.252 160.24 270.228 160.234 270.216C160.216 270.204 160.198 270.192 160.18 270.18L160.144 270.156L160.121 270.144L160.091 270.132C160.043 270.12 160.091 270.132 160.127 270.138C160.299 270.168 160.537 270.18 160.769 270.192C161.001 270.204 161.239 270.21 161.477 270.222L162.923 270.246L163.655 270.264L164.029 270.276L164.226 270.288C164.297 270.294 164.363 270.3 164.464 270.312C164.493 270.318 164.523 270.324 164.571 270.336C164.577 270.336 164.595 270.342 164.624 270.354C164.648 270.36 164.666 270.372 164.69 270.378C164.743 270.402 164.809 270.444 164.862 270.486C164.975 270.576 165.154 270.864 165.059 271.134C164.934 271.458 164.88 271.41 164.809 271.494C164.779 271.518 164.72 271.548 164.708 271.554C164.69 271.56 164.666 271.572 164.648 271.578L164.612 271.59C164.571 271.602 164.541 271.608 164.517 271.614C164.422 271.632 164.357 271.638 164.291 271.65C164.16 271.668 164.035 271.674 163.916 271.686C163.672 271.71 163.44 271.728 163.208 271.758C162.976 271.782 162.75 271.818 162.548 271.86C162.453 271.878 162.358 271.914 162.322 271.926C162.316 271.926 162.31 271.932 162.322 271.92C162.334 271.908 162.364 271.884 162.399 271.812C162.417 271.776 162.435 271.722 162.441 271.668C162.447 271.614 162.441 271.56 162.423 271.512C162.417 271.482 162.405 271.452 162.387 271.428C162.381 271.416 162.375 271.404 162.364 271.398C162.346 271.38 162.358 271.404 162.387 271.422C162.411 271.446 162.453 271.47 162.494 271.494C162.578 271.542 162.679 271.596 162.78 271.644C162.982 271.74 163.208 271.836 163.428 271.938C163.643 272.034 163.857 272.118 164.077 272.196L164.416 272.31C164.476 272.328 164.535 272.346 164.606 272.376C164.624 272.382 164.642 272.388 164.666 272.4C164.69 272.406 164.708 272.418 164.737 272.43L164.779 272.454C164.791 272.46 164.821 272.478 164.838 272.49C164.868 272.508 164.946 272.574 164.987 272.658C165.047 272.76 165.053 272.892 165.029 272.982C165.017 273.018 164.999 273.072 164.981 273.096C164.969 273.12 164.952 273.15 164.934 273.168C164.874 273.234 164.827 273.276 164.785 273.3C164.702 273.354 164.636 273.384 164.571 273.414C164.44 273.474 164.315 273.51 164.196 273.552C163.952 273.63 163.714 273.69 163.47 273.744C162.988 273.858 162.512 273.96 162.03 274.044C161.548 274.128 161.067 274.212 160.591 274.284C160.109 274.356 159.627 274.428 159.145 274.482L160.537 274.044C161.001 273.9 161.465 273.756 161.929 273.606C162.387 273.456 162.851 273.306 163.298 273.144C163.524 273.06 163.744 272.976 163.958 272.886C164.065 272.838 164.166 272.79 164.25 272.742C164.291 272.718 164.333 272.688 164.345 272.676C164.357 272.67 164.351 272.664 164.333 272.688C164.327 272.7 164.315 272.712 164.309 272.724C164.303 272.73 164.285 272.772 164.279 272.796C164.261 272.856 164.267 272.958 164.309 273.036C164.333 273.096 164.392 273.138 164.392 273.138C164.398 273.144 164.41 273.15 164.41 273.15C164.416 273.15 164.404 273.15 164.398 273.15L164.368 273.144L164.208 273.108L163.845 273.024C163.601 272.964 163.351 272.892 163.113 272.814C162.881 272.736 162.649 272.658 162.405 272.568C162.286 272.52 162.161 272.472 162.03 272.412C161.965 272.382 161.899 272.346 161.822 272.298C161.751 272.256 161.667 272.196 161.566 272.088C161.537 272.052 161.513 272.022 161.489 271.986C161.459 271.932 161.435 271.878 161.412 271.818C161.394 271.74 161.382 271.656 161.388 271.572C161.394 271.488 161.424 271.404 161.453 271.338C161.519 271.212 161.59 271.146 161.65 271.092C161.709 271.044 161.757 271.014 161.804 270.984C161.983 270.882 162.12 270.84 162.256 270.798C162.524 270.72 162.774 270.666 163.024 270.618C163.274 270.57 163.518 270.534 163.756 270.492L164.101 270.432C164.154 270.42 164.208 270.414 164.232 270.402C164.238 270.402 164.238 270.402 164.22 270.402L164.202 270.408C164.19 270.414 164.178 270.42 164.166 270.426C164.16 270.426 164.107 270.456 164.083 270.474C164.017 270.552 163.97 270.504 163.851 270.816C163.762 271.074 163.928 271.362 164.041 271.446C164.083 271.488 164.142 271.524 164.19 271.542C164.202 271.548 164.22 271.554 164.232 271.56L164.261 271.566C164.285 271.572 164.279 271.572 164.279 271.572L164.154 271.566H163.988L163.637 271.572L162.917 271.596C162.435 271.614 161.947 271.626 161.453 271.638C161.209 271.644 160.959 271.644 160.71 271.644C160.454 271.638 160.21 271.638 159.901 271.602C159.817 271.59 159.74 271.584 159.579 271.53C159.561 271.524 159.538 271.518 159.508 271.5L159.46 271.476C159.448 271.47 159.431 271.464 159.401 271.446C159.377 271.428 159.353 271.416 159.329 271.398C159.312 271.386 159.276 271.356 159.234 271.314C159.198 271.272 159.163 271.236 159.133 271.182C159.085 271.104 159.05 271.014 159.032 270.93C158.996 270.768 159.026 270.576 159.103 270.426C159.133 270.372 159.145 270.354 159.169 270.318C159.193 270.288 159.216 270.258 159.24 270.228C159.264 270.198 159.294 270.174 159.306 270.168L159.341 270.138C159.365 270.12 159.395 270.102 159.419 270.084C159.454 270.06 159.484 270.048 159.52 270.03C159.549 270.012 159.567 270.006 159.597 269.994C159.651 269.97 159.68 269.958 159.728 269.94C159.805 269.91 159.877 269.886 159.942 269.868C160.21 269.784 160.454 269.724 160.698 269.67C161.667 269.442 162.625 269.268 163.583 269.082C164.541 268.908 165.493 268.734 166.439 268.548C166.909 268.458 167.379 268.368 167.843 268.266C168.075 268.218 168.301 268.164 168.515 268.104C168.622 268.074 168.723 268.044 168.813 268.014C168.854 268.002 168.89 267.984 168.914 267.978C168.92 267.978 168.92 267.978 168.92 267.978L168.908 267.984C168.896 267.99 168.902 267.99 168.86 268.02C168.848 268.032 168.831 268.044 168.819 268.062L168.777 268.104C168.759 268.122 168.741 268.146 168.729 268.17C168.717 268.194 168.7 268.218 168.688 268.242C168.682 268.26 168.646 268.332 168.634 268.386C168.622 268.446 168.61 268.506 168.61 268.56C168.61 268.614 168.616 268.674 168.628 268.734C168.64 268.794 168.664 268.854 168.694 268.908C168.717 268.956 168.729 268.974 168.753 269.01C168.777 269.04 168.801 269.07 168.825 269.094C168.836 269.106 168.848 269.118 168.866 269.13C168.938 269.184 168.95 269.19 168.985 269.208C169.003 269.214 169.009 269.22 169.021 269.22C169.039 269.226 169.003 269.214 168.967 269.208C168.89 269.19 168.783 269.178 168.676 269.166C168.462 269.142 168.23 269.13 167.998 269.118C167.528 269.094 167.052 269.088 166.576 269.082C164.66 269.07 162.726 269.112 160.793 269.166C156.914 269.28 153.053 269.502 149.162 269.742Z" fill="#E4DCD9"/>
<path d="M134.122 219.556C133.717 219.556 133.325 219.55 132.95 219.544C127.233 219.442 127.155 218.638 127.125 218.338C127.096 218.038 127.018 217.234 132.611 216.022C136.091 215.266 140.744 214.588 145.717 214.096C150.691 213.61 155.391 213.376 158.949 213.436C164.666 213.538 164.743 214.342 164.773 214.642C164.803 214.942 164.88 215.746 159.288 216.958C155.807 217.714 151.155 218.398 146.181 218.884C141.737 219.322 137.513 219.55 134.122 219.556ZM157.771 213.904C154.397 213.904 150.191 214.138 145.765 214.57C140.809 215.056 136.175 215.734 132.712 216.484C127.679 217.576 127.601 218.278 127.601 218.284C127.601 218.29 127.81 218.968 132.956 219.058C136.496 219.118 141.178 218.89 146.134 218.398C151.09 217.912 155.724 217.234 159.187 216.484C164.22 215.392 164.297 214.69 164.297 214.684C164.297 214.678 164.089 214 158.943 213.91C158.562 213.91 158.175 213.904 157.771 213.904Z" fill="#C4C4C4"/>
<path d="M267.828 122.323C267.959 123.103 267.894 123.925 267.668 124.705C267.43 125.485 267.061 126.223 266.585 126.895C266.115 127.567 265.556 128.173 264.931 128.713C264.306 129.247 263.64 129.709 262.956 130.136C261.594 130.988 260.178 131.678 258.893 132.464C258.732 132.56 258.571 132.662 258.417 132.764C258.262 132.866 258.107 132.98 257.952 133.082L257.494 133.4C257.34 133.502 257.197 133.628 257.048 133.742L256.608 134.084C256.459 134.198 256.322 134.33 256.18 134.45C255.9 134.696 255.614 134.936 255.347 135.2C254.258 136.226 253.264 137.36 252.33 138.554C251.402 139.754 250.534 141.008 249.707 142.304C248.88 143.6 248.077 144.926 247.291 146.276L244.9 150.326C241.693 155.72 238.409 161.061 235.03 166.353C231.644 171.639 228.188 176.877 224.493 181.977C227.218 176.295 230.175 170.751 233.203 165.249C236.243 159.753 239.373 154.316 242.579 148.922L245.007 144.884C245.834 143.54 246.667 142.19 247.577 140.87C248.481 139.556 249.439 138.254 250.492 137.03C251.539 135.8 252.687 134.636 253.949 133.592C255.204 132.548 256.584 131.636 258.036 130.904C259.481 130.178 260.945 129.631 262.313 128.971C262.998 128.647 263.664 128.281 264.283 127.873C264.907 127.465 265.473 126.973 265.99 126.427C266.508 125.881 266.942 125.257 267.269 124.567C267.626 123.877 267.805 123.115 267.828 122.323Z" fill="white"/>
<path d="M257.524 137.33C257.453 137.084 257.411 136.832 257.417 136.567C257.423 136.303 257.477 136.045 257.572 135.799C257.756 135.301 258.089 134.863 258.494 134.515C258.696 134.341 258.916 134.191 259.148 134.059C259.38 133.927 259.624 133.813 259.88 133.723C260.386 133.543 260.927 133.447 261.481 133.453C262.034 133.465 262.599 133.591 263.117 133.861C263.604 134.125 264.051 134.461 264.443 134.863C265.223 135.667 265.746 136.67 266.091 137.702C266.27 138.218 266.389 138.746 266.49 139.274C266.591 139.802 266.645 140.336 266.68 140.876C266.716 141.416 266.716 141.932 266.716 142.454C266.716 142.97 266.704 143.486 266.692 143.99C266.68 144.998 266.668 145.982 266.758 146.924C266.805 147.392 266.871 147.854 266.978 148.292C267.079 148.736 267.234 149.156 267.388 149.576C267.727 150.41 268.215 151.184 268.792 151.904C269.369 152.624 270.036 153.296 270.756 153.926C272.201 155.186 273.843 156.308 275.497 157.484L276.122 157.934C276.33 158.084 276.538 158.246 276.741 158.402L277.359 158.876C277.568 159.032 277.776 159.188 277.972 159.362L279.168 160.358L280.328 161.402C281.851 162.818 283.279 164.33 284.624 165.921C289.948 172.317 293.649 180.021 295.428 188.109C296.29 192.159 296.719 196.306 296.57 200.422C296.499 202.48 296.326 204.532 295.969 206.554C295.898 207.058 295.785 207.562 295.689 208.066L295.541 208.816C295.487 209.068 295.422 209.314 295.362 209.56L295.178 210.304L295.083 210.676L294.976 211.042C294.833 211.534 294.69 212.02 294.541 212.506C295.904 204.478 295.44 196.306 293.363 188.619C291.275 180.939 287.592 173.733 282.553 167.673C281.292 166.161 279.941 164.726 278.514 163.37L277.431 162.368L276.312 161.408C276.128 161.246 275.938 161.096 275.741 160.94L275.164 160.484C274.968 160.334 274.783 160.178 274.587 160.028L273.992 159.578C272.392 158.372 270.714 157.172 269.161 155.708C268.388 154.976 267.644 154.184 266.996 153.29C266.347 152.396 265.788 151.412 265.413 150.344C265.324 150.074 265.246 149.804 265.163 149.534C265.122 149.402 265.092 149.264 265.062 149.12C265.032 148.982 264.997 148.844 264.979 148.706C264.878 148.154 264.836 147.602 264.806 147.056C264.765 145.97 264.836 144.92 264.919 143.9C265.003 142.88 265.098 141.884 265.116 140.918C265.133 139.958 265.044 138.998 264.818 138.08C264.598 137.162 264.223 136.291 263.658 135.577C263.372 135.223 263.033 134.917 262.658 134.659C262.302 134.425 261.873 134.269 261.421 134.209C260.517 134.089 259.529 134.317 258.732 134.845C258.333 135.109 257.982 135.457 257.756 135.889C257.53 136.309 257.453 136.826 257.524 137.33Z" fill="white"/>
<path d="M276.907 143.342C278.609 144.626 280.185 146.084 281.655 147.644C283.124 149.21 284.481 150.884 285.724 152.648C288.205 156.176 290.234 160.046 291.751 164.109C293.268 168.171 294.279 172.425 294.72 176.733C294.934 178.887 295.017 181.047 294.934 183.201L294.839 184.815C294.791 185.349 294.743 185.889 294.684 186.417C294.619 186.951 294.541 187.479 294.464 188.013C294.363 188.541 294.279 189.069 294.166 189.591C294.119 189.057 294.089 188.523 294.053 187.995C294.006 187.461 293.964 186.933 293.928 186.405C293.875 185.877 293.827 185.349 293.78 184.827L293.601 183.255C293.345 181.167 293.024 179.097 292.614 177.051C291.804 172.959 290.668 168.957 289.222 165.069C287.771 161.186 286.01 157.418 283.945 153.8C282.916 151.988 281.804 150.218 280.632 148.478C279.454 146.738 278.198 145.04 276.907 143.342Z" fill="white"/>
<path d="M280.126 120.355C282.149 122.342 283.981 124.532 285.653 126.848C287.325 129.164 288.818 131.618 290.145 134.168C292.792 139.268 294.738 144.746 295.951 150.387C297.165 156.027 297.629 161.829 297.308 167.571C297.141 170.445 296.784 173.301 296.213 176.103L295.743 178.197C295.559 178.887 295.38 179.584 295.196 180.268C294.988 180.952 294.779 181.63 294.565 182.308C294.321 182.98 294.089 183.652 293.839 184.318C293.94 183.61 294.059 182.914 294.167 182.212C294.262 181.51 294.357 180.808 294.458 180.112L294.702 178.011L294.898 175.911C295.13 173.109 295.226 170.313 295.184 167.523C295.107 161.943 294.47 156.393 293.31 150.957C292.144 145.52 290.448 140.204 288.235 135.086C287.134 132.524 285.897 130.016 284.54 127.562C283.19 125.114 281.703 122.72 280.126 120.355Z" fill="white"/>
<path d="M299.152 131.119C299.533 131.767 299.89 132.433 300.235 133.105C300.544 133.789 300.836 134.485 301.127 135.187C301.377 135.901 301.615 136.621 301.847 137.347C301.948 137.713 302.037 138.079 302.132 138.451C302.222 138.823 302.323 139.189 302.406 139.561C303.043 142.544 303.257 145.622 303.061 148.676C302.87 151.73 302.269 154.76 301.258 157.634C301.127 157.994 300.984 158.348 300.847 158.702C300.711 159.056 300.574 159.41 300.425 159.758C300.104 160.448 299.771 161.132 299.437 161.804C299.063 162.464 298.682 163.118 298.283 163.754C297.855 164.378 297.415 164.99 296.957 165.584C297.153 164.852 297.373 164.138 297.605 163.436C297.795 162.716 297.998 162.008 298.206 161.306C298.378 160.592 298.557 159.884 298.747 159.182C298.819 158.822 298.902 158.468 298.979 158.114C299.057 157.76 299.134 157.406 299.217 157.052C299.8 154.214 300.181 151.364 300.366 148.496C300.55 145.628 300.532 142.754 300.312 139.861C300.27 139.501 300.241 139.141 300.211 138.781C300.175 138.421 300.145 138.055 300.116 137.695C300.02 136.975 299.931 136.249 299.848 135.517C299.729 134.797 299.616 134.065 299.521 133.327C299.384 132.607 299.253 131.869 299.152 131.119Z" fill="white"/>
<path d="M302.222 191.32C302.079 190.726 301.966 190.12 301.865 189.514C301.788 188.908 301.728 188.296 301.674 187.683C301.651 187.071 301.633 186.459 301.633 185.841C301.639 185.535 301.657 185.229 301.669 184.923C301.686 184.617 301.692 184.305 301.716 183.999C301.918 181.545 302.442 179.109 303.251 176.775C304.06 174.441 305.155 172.209 306.517 170.163C306.69 169.911 306.874 169.659 307.053 169.413C307.231 169.161 307.41 168.915 307.594 168.669C307.981 168.189 308.373 167.721 308.772 167.259C309.194 166.815 309.617 166.371 310.051 165.945C310.509 165.537 310.967 165.135 311.449 164.763C311.199 165.333 310.932 165.873 310.652 166.401C310.396 166.947 310.134 167.481 309.867 168.009C309.617 168.549 309.367 169.083 309.105 169.611C308.992 169.881 308.867 170.151 308.742 170.415C308.623 170.679 308.498 170.949 308.373 171.213C307.422 173.343 306.565 175.497 305.803 177.681C305.042 179.865 304.381 182.085 303.804 184.353C303.745 184.635 303.668 184.923 303.602 185.205C303.531 185.487 303.465 185.775 303.388 186.063C303.269 186.639 303.132 187.215 302.995 187.791C302.876 188.374 302.757 188.956 302.614 189.544C302.501 190.126 302.376 190.72 302.222 191.32Z" fill="white"/>
<path d="M200.136 265.752L199.839 266.67C199.744 266.976 199.625 267.276 199.553 267.588L199.303 268.518C199.262 268.674 199.22 268.824 199.184 268.98L199.089 269.448L198.893 270.384C198.827 270.696 198.792 271.014 198.738 271.326C198.691 271.638 198.631 271.956 198.595 272.268L198.5 273.216L198.453 273.69C198.435 273.846 198.435 274.008 198.423 274.164L198.369 275.112C198.346 275.43 198.351 275.748 198.346 276.06L198.334 277.008L198.369 277.956L198.387 278.43L198.393 278.664L198.411 278.898L198.488 279.846L198.53 280.32L198.589 280.788C198.875 283.297 199.393 285.775 200.083 288.199C200.779 290.617 201.683 292.975 202.712 295.279C202.843 295.567 202.962 295.855 203.099 296.143L203.504 297.001C203.765 297.571 204.063 298.135 204.343 298.699C204.628 299.263 204.926 299.821 205.217 300.379C205.52 300.931 205.824 301.489 206.133 302.041C207.383 304.243 208.697 306.415 210.06 308.569C211.422 310.717 212.82 312.86 214.224 315.008L218.407 321.458C223.964 330.068 229.437 338.738 234.827 347.457C240.205 356.187 245.518 364.959 250.599 373.882C244.572 365.577 238.772 357.123 233.048 348.621C227.331 340.112 221.697 331.55 216.146 322.934C213.386 318.614 210.589 314.336 207.9 309.931C206.568 307.723 205.259 305.491 204.057 303.187C202.843 300.895 201.737 298.531 200.767 296.107C200.648 295.801 200.523 295.501 200.404 295.195L200.065 294.277C199.833 293.665 199.637 293.041 199.428 292.423C199.321 292.117 199.232 291.799 199.137 291.487L198.857 290.545C198.768 290.227 198.691 289.909 198.607 289.597C198.53 289.279 198.441 288.967 198.369 288.643C197.774 286.093 197.394 283.495 197.269 280.884L197.245 280.398L197.239 279.906L197.227 278.928V278.682L197.233 278.436L197.251 277.944L197.287 276.966L197.364 275.988C197.394 275.664 197.406 275.34 197.459 275.016L197.59 274.05C197.614 273.888 197.632 273.726 197.661 273.57L197.751 273.09L197.935 272.13C198 271.812 198.09 271.5 198.161 271.182C198.244 270.87 198.31 270.552 198.405 270.24L198.691 269.31L198.839 268.848C198.893 268.692 198.952 268.542 199.006 268.392L199.351 267.486L199.434 267.258C199.464 267.186 199.5 267.108 199.529 267.036L199.726 266.598L200.136 265.752Z" fill="white"/>
<path d="M285.361 266.137C287.669 271.405 289.454 276.913 290.811 282.535L291.721 286.777L292.465 291.056C292.661 292.49 292.845 293.93 293.036 295.364L293.428 299.696C294.232 311.276 293.167 323.025 290.216 334.281C287.265 345.543 282.422 356.278 276.044 365.938L273.575 369.508C272.707 370.666 271.844 371.824 270.964 372.97L268.215 376.319L265.341 379.553C261.403 383.759 257.149 387.659 252.556 391.079C260.992 383.327 268.328 374.488 274.248 364.78C280.179 355.084 284.713 344.553 287.598 333.579C290.478 322.605 291.703 311.186 291.31 299.804C290.93 288.427 288.895 277.081 285.361 266.137Z" fill="white"/>
<path d="M278.103 407.585C283.731 403.973 288.776 399.521 293 394.409C295.118 391.859 297.052 389.153 298.741 386.314C299.592 384.898 300.389 383.446 301.127 381.97C301.502 381.238 301.847 380.482 302.198 379.738C302.525 378.982 302.87 378.232 303.174 377.464C303.495 376.702 303.775 375.928 304.066 375.154C304.34 374.374 304.613 373.6 304.857 372.808C305.357 371.236 305.803 369.652 306.166 368.044L306.309 367.444L306.434 366.838L306.559 366.232L306.624 365.932L306.672 365.638L306.767 365.056C306.797 364.864 306.815 364.66 306.839 364.462C306.862 364.264 306.886 364.066 306.904 363.862L306.952 363.256C307.077 361.63 307.118 359.956 307.19 358.263C307.261 356.571 307.368 354.867 307.535 353.163C307.701 351.459 307.951 349.755 308.255 348.063C308.421 347.223 308.582 346.371 308.79 345.537C308.891 345.117 308.986 344.697 309.087 344.283L309.427 343.041C309.873 341.385 310.402 339.759 310.973 338.145C312.128 334.929 313.484 331.785 315.072 328.748C315.876 327.23 316.726 325.742 317.684 324.296C318.166 323.57 318.666 322.856 319.261 322.142C319.416 321.962 319.57 321.782 319.761 321.596C319.856 321.5 319.957 321.404 320.082 321.302L320.183 321.224C320.219 321.2 320.26 321.164 320.302 321.14C320.338 321.116 320.397 321.08 320.451 321.044C320.48 321.026 320.498 321.014 320.54 320.996C320.582 320.978 320.617 320.96 320.659 320.942C320.695 320.924 320.736 320.906 320.808 320.888C320.873 320.87 320.933 320.852 320.998 320.84C321.087 320.822 321.2 320.816 321.307 320.816C321.385 320.81 321.587 320.84 321.718 320.888C321.861 320.93 322.009 321.014 322.14 321.116C322.283 321.23 322.343 321.308 322.426 321.422C322.509 321.548 322.527 321.59 322.569 321.68C322.61 321.77 322.628 321.83 322.64 321.884C322.652 321.938 322.67 322.004 322.676 322.046L322.694 322.166C322.7 322.208 322.7 322.244 322.7 322.274L322.706 322.37C322.706 322.484 322.7 322.58 322.694 322.658C322.664 322.988 322.61 323.222 322.557 323.456C322.45 323.924 322.325 324.344 322.194 324.758C322.063 325.172 321.932 325.58 321.795 325.988C321.522 326.798 321.236 327.596 320.95 328.388C320.379 329.979 319.79 331.551 319.207 333.123C318.624 334.695 318.047 336.267 317.482 337.839C316.917 339.411 316.364 340.989 315.84 342.573C315.322 344.157 314.823 345.741 314.382 347.337C313.948 348.933 313.567 350.541 313.359 352.125C313.264 352.911 313.216 353.709 313.311 354.405C313.359 354.747 313.46 355.053 313.579 355.233C313.639 355.323 313.698 355.383 313.776 355.425C313.793 355.431 313.811 355.443 313.829 355.455C313.847 355.467 313.871 355.467 313.895 355.479C313.936 355.503 313.996 355.497 314.049 355.515C314.287 355.539 314.626 355.473 314.959 355.353C315.299 355.233 315.656 355.071 316.007 354.885C316.709 354.513 317.411 354.075 318.136 353.643C318.499 353.427 318.868 353.211 319.255 353.007C319.642 352.803 320.04 352.611 320.486 352.455C320.713 352.383 320.945 352.311 321.212 352.287C321.337 352.263 321.486 352.269 321.629 352.275C321.7 352.275 321.777 352.293 321.855 352.305L321.968 352.323L322.081 352.359C322.158 352.389 322.236 352.407 322.301 352.449C322.372 352.491 322.444 352.533 322.509 352.581C322.575 352.629 322.628 352.689 322.688 352.743C322.717 352.773 322.747 352.797 322.771 352.827L322.836 352.923C323.027 353.175 323.104 353.445 323.17 353.703C323.271 354.213 323.241 354.675 323.193 355.125C323.14 355.569 323.051 356.001 322.949 356.421C322.741 357.261 322.468 358.071 322.164 358.863C320.95 362.032 319.416 365.026 317.809 367.978C318.481 366.436 319.148 364.894 319.761 363.334C320.385 361.78 320.968 360.208 321.456 358.617C321.694 357.819 321.902 357.021 322.063 356.223C322.134 355.821 322.194 355.425 322.224 355.035C322.247 354.645 322.236 354.261 322.152 353.949C322.105 353.805 322.051 353.661 321.98 353.589C321.908 353.505 321.843 353.457 321.742 353.439L321.706 353.427H321.664C321.635 353.427 321.611 353.415 321.581 353.421C321.516 353.427 321.45 353.427 321.373 353.445C321.224 353.469 321.058 353.529 320.891 353.589C320.558 353.721 320.213 353.913 319.868 354.117C319.523 354.321 319.184 354.549 318.838 354.777C318.148 355.239 317.452 355.713 316.697 356.157C316.316 356.379 315.923 356.589 315.483 356.763C315.263 356.853 315.031 356.931 314.781 356.985C314.662 357.021 314.519 357.033 314.388 357.057C314.251 357.069 314.109 357.075 313.96 357.075C313.805 357.057 313.657 357.057 313.502 357.009C313.425 356.985 313.347 356.973 313.27 356.943C313.192 356.913 313.115 356.877 313.044 356.841C312.74 356.697 312.485 356.463 312.3 356.217C311.925 355.713 311.777 355.191 311.681 354.711C311.586 354.225 311.556 353.757 311.55 353.301C311.545 352.845 311.568 352.401 311.598 351.957C311.741 350.199 312.092 348.519 312.479 346.857C312.871 345.195 313.323 343.557 313.811 341.937C314.293 340.317 314.811 338.703 315.334 337.101C315.864 335.499 316.411 333.909 316.958 332.319L318.606 327.566C318.874 326.774 319.142 325.988 319.398 325.202C319.523 324.812 319.648 324.416 319.761 324.032C319.874 323.648 319.981 323.258 320.052 322.904C320.088 322.73 320.118 322.556 320.124 322.46C320.124 322.436 320.124 322.43 320.124 322.436C320.124 322.442 320.124 322.448 320.124 322.448C320.124 322.454 320.124 322.454 320.124 322.478C320.124 322.49 320.129 322.508 320.129 322.52C320.129 322.532 320.141 322.58 320.147 322.604C320.153 322.628 320.165 322.664 320.195 322.73C320.225 322.796 320.237 322.82 320.302 322.922C320.367 323.018 320.415 323.066 320.534 323.168C320.641 323.258 320.778 323.318 320.891 323.36C320.998 323.402 321.171 323.42 321.224 323.42C321.301 323.426 321.385 323.414 321.456 323.402C321.498 323.396 321.534 323.384 321.575 323.372L321.653 323.342C321.67 323.336 321.688 323.33 321.7 323.318C321.718 323.306 321.712 323.312 321.724 323.306C321.736 323.3 321.748 323.288 321.742 323.294L321.712 323.318C321.676 323.348 321.629 323.396 321.569 323.45C321.462 323.558 321.343 323.696 321.224 323.834C320.748 324.41 320.29 325.076 319.85 325.748C318.975 327.104 318.166 328.538 317.417 329.997C315.905 332.919 314.602 335.955 313.496 339.063C312.943 340.617 312.425 342.189 311.991 343.773L311.664 344.961C311.562 345.357 311.473 345.759 311.372 346.155C311.17 346.947 311.021 347.757 310.848 348.561C310.545 350.175 310.289 351.795 310.117 353.433C309.938 355.071 309.819 356.721 309.724 358.389C309.623 360.058 309.557 361.744 309.397 363.466L309.331 364.114C309.308 364.33 309.278 364.552 309.248 364.768C309.218 364.984 309.195 365.206 309.153 365.422L309.034 366.082L308.974 366.412L308.903 366.724L308.76 367.348L308.617 367.972L308.457 368.596C308.04 370.258 307.547 371.902 306.981 373.516C306.708 374.326 306.398 375.124 306.095 375.922C305.774 376.714 305.458 377.506 305.101 378.286C304.762 379.072 304.387 379.84 304.024 380.608C303.638 381.37 303.257 382.132 302.841 382.876C302.638 383.248 302.436 383.626 302.216 383.992C302.002 384.358 301.793 384.73 301.573 385.096L300.907 386.182C300.687 386.542 300.443 386.896 300.217 387.256C299.283 388.673 298.301 390.065 297.254 391.397C296.998 391.733 296.731 392.063 296.463 392.393C296.195 392.723 295.933 393.053 295.654 393.377L294.827 394.343C294.547 394.661 294.262 394.973 293.976 395.285C289.401 400.259 284.035 404.501 278.103 407.585Z" fill="white"/>
<path d="M206.966 355.828C204.765 350.805 201.814 346.161 198.09 342.267C196.24 340.311 194.205 338.553 192.045 336.981C189.88 335.415 187.583 334.023 185.192 332.913C184.597 332.637 183.99 332.379 183.401 332.169C183.252 332.115 183.109 332.067 182.967 332.025C182.895 332.007 182.83 331.989 182.77 331.971C182.717 331.959 182.651 331.947 182.663 331.953H182.669C182.681 331.953 182.693 331.953 182.705 331.959C182.705 331.959 182.747 331.959 182.788 331.959C182.812 331.953 182.866 331.959 183.014 331.917C183.032 331.929 183.466 331.743 183.627 331.407C183.835 330.993 183.746 330.651 183.734 330.627C183.687 330.465 183.669 330.447 183.657 330.417C183.639 330.381 183.615 330.345 183.615 330.345C183.609 330.333 183.603 330.327 183.597 330.321C183.591 330.309 183.597 330.315 183.597 330.315C183.597 330.315 183.597 330.315 183.603 330.321L183.651 330.375C183.74 330.465 183.853 330.573 183.972 330.681C184.454 331.113 184.972 331.563 185.483 332.001L187.036 333.333C189.112 335.115 191.165 336.945 193.176 338.811C195.193 340.677 197.156 342.603 199.084 344.565C199.565 345.051 200.047 345.555 200.529 346.089C201.011 346.623 201.481 347.193 201.921 347.835C202.35 348.477 202.754 349.197 203.004 350.061C203.07 350.277 203.105 350.511 203.153 350.733L203.189 351.093C203.201 351.213 203.212 351.333 203.201 351.453C203.195 351.699 203.189 351.945 203.135 352.192C203.111 352.312 203.093 352.438 203.064 352.558L202.951 352.912C202.933 352.972 202.915 353.032 202.891 353.086L202.82 353.248L202.665 353.572L202.487 353.872C202.427 353.974 202.362 354.07 202.296 354.16L202.088 354.43C202.017 354.52 201.939 354.598 201.868 354.676C201.791 354.754 201.719 354.844 201.642 354.916L201.404 355.132C200.761 355.702 200.053 356.116 199.316 356.434C198.578 356.752 197.804 356.968 197.001 357.076C196.192 357.184 195.347 357.16 194.556 357.004C192.956 356.698 191.558 355.936 190.368 355.096C190.07 354.892 189.779 354.67 189.541 354.502C189.487 354.466 189.428 354.424 189.416 354.418C189.41 354.412 189.41 354.418 189.487 354.448C189.511 354.46 189.523 354.46 189.576 354.478C189.618 354.49 189.66 354.502 189.755 354.514C189.814 354.52 189.987 354.526 190.136 354.49C190.344 354.448 190.564 354.34 190.766 354.142C190.939 353.98 191.058 353.698 191.088 353.56C191.129 353.356 191.123 353.266 191.117 353.17C191.105 353.05 191.099 353.05 191.088 352.984C191.07 352.924 191.07 352.924 191.058 352.888L191.04 352.84L191.028 352.81C191.022 352.804 191.016 352.792 191.022 352.792C191.022 352.792 191.052 352.84 191.082 352.882C191.153 352.978 191.248 353.092 191.343 353.212L191.659 353.572C191.873 353.812 192.099 354.058 192.331 354.304C194.181 356.26 196.133 358.21 197.989 360.244C198.923 361.258 199.845 362.29 200.732 363.37C201.618 364.45 202.481 365.56 203.242 366.808C203.433 367.12 203.617 367.45 203.784 367.792C203.95 368.14 204.105 368.512 204.224 368.938C204.283 369.154 204.325 369.382 204.343 369.646C204.361 369.904 204.349 370.198 204.254 370.522C204.164 370.84 203.962 371.17 203.73 371.392C203.498 371.614 203.26 371.758 203.034 371.86C202.582 372.064 202.171 372.142 201.773 372.196C201.38 372.244 200.999 372.262 200.63 372.256C200.262 372.25 199.893 372.232 199.53 372.196C199.167 372.16 198.81 372.112 198.435 372.034C197.691 371.884 196.977 371.638 196.305 371.308C195.972 371.146 195.645 370.966 195.335 370.774C195.181 370.678 195.032 370.582 194.883 370.486C194.74 370.39 194.592 370.288 194.497 370.228C194.473 370.216 194.455 370.204 194.467 370.21C194.467 370.21 194.479 370.216 194.491 370.216C194.508 370.222 194.503 370.216 194.544 370.228C194.586 370.234 194.604 370.24 194.663 370.24C194.758 370.24 194.812 370.228 194.937 370.18C195.068 370.126 195.175 370.03 195.246 369.916C195.324 369.796 195.341 369.718 195.353 369.64C195.371 369.514 195.353 369.46 195.353 369.436C195.341 369.376 195.341 369.394 195.341 369.4C195.365 369.466 195.443 369.61 195.514 369.736C195.675 370 195.859 370.276 196.049 370.546C196.43 371.092 196.841 371.632 197.251 372.172C198.893 374.338 200.63 376.45 202.344 378.58L204.932 381.767L207.508 384.959C206.538 383.993 205.586 383.015 204.628 382.043L201.785 379.084C200.839 378.1 199.911 377.092 198.982 376.084C198.054 375.076 197.138 374.062 196.228 373.024C195.776 372.502 195.329 371.974 194.895 371.428C194.675 371.152 194.461 370.876 194.253 370.564C194.146 370.402 194.044 370.252 193.925 370.006C193.896 369.934 193.866 369.868 193.836 369.73C193.824 369.658 193.806 369.562 193.83 369.394C193.848 369.292 193.872 369.196 193.961 369.058C194.044 368.926 194.169 368.824 194.318 368.752C194.461 368.692 194.538 368.686 194.657 368.68C194.74 368.68 194.782 368.686 194.842 368.698C194.907 368.71 194.913 368.716 194.955 368.728C194.984 368.74 195.02 368.752 195.038 368.758C195.127 368.794 195.187 368.824 195.24 368.848C195.443 368.956 195.573 369.04 195.722 369.124C195.865 369.208 196.002 369.292 196.145 369.364C196.424 369.52 196.704 369.652 196.983 369.772C197.549 370.012 198.138 370.18 198.738 370.27C199.333 370.36 199.988 370.384 200.601 370.366C200.91 370.354 201.207 370.33 201.487 370.282C201.761 370.234 202.023 370.162 202.183 370.072C202.266 370.03 202.314 369.988 202.326 369.97C202.338 369.946 202.314 369.976 202.32 369.964C202.326 369.946 202.32 369.742 202.243 369.514C202.171 369.28 202.052 369.022 201.909 368.758C201.773 368.494 201.606 368.23 201.434 367.966C200.732 366.904 199.875 365.878 198.994 364.876C198.108 363.874 197.186 362.89 196.246 361.918C195.306 360.946 194.342 359.992 193.378 359.026C192.414 358.066 191.439 357.112 190.469 356.116C190.225 355.87 189.981 355.618 189.737 355.354C189.612 355.222 189.493 355.09 189.368 354.946C189.243 354.802 189.118 354.658 188.987 354.478C188.916 354.388 188.851 354.292 188.761 354.142C188.72 354.07 188.666 353.986 188.607 353.818C188.589 353.764 188.577 353.746 188.559 353.662C188.541 353.578 188.529 353.554 188.517 353.41C188.511 353.296 188.5 353.182 188.547 352.96C188.577 352.798 188.714 352.498 188.898 352.318C189.112 352.101 189.35 351.987 189.582 351.939C189.749 351.903 189.945 351.904 190.023 351.916C190.142 351.928 190.207 351.945 190.267 351.963C190.338 351.981 190.368 351.993 190.415 352.011C190.57 352.071 190.647 352.12 190.713 352.156C190.844 352.234 190.933 352.294 191.016 352.348L191.855 352.936C192.89 353.65 193.961 354.184 195.05 354.376C195.591 354.472 196.121 354.49 196.662 354.418C197.204 354.34 197.751 354.184 198.263 353.962C198.774 353.74 199.256 353.452 199.631 353.11L199.774 352.984C199.821 352.942 199.857 352.894 199.899 352.852C199.94 352.804 199.988 352.762 200.018 352.72L200.119 352.582C200.16 352.54 200.184 352.492 200.214 352.444L200.297 352.306C200.315 352.258 200.339 352.21 200.357 352.168L200.392 352.102C200.398 352.078 200.404 352.054 200.416 352.03C200.428 351.982 200.446 351.939 200.464 351.891C200.476 351.843 200.476 351.795 200.488 351.753C200.517 351.663 200.511 351.567 200.517 351.465C200.523 351.417 200.517 351.363 200.511 351.315C200.505 351.261 200.505 351.213 200.499 351.159L200.464 350.997C200.452 350.943 200.452 350.889 200.428 350.829C200.297 350.373 200.041 349.875 199.714 349.383C199.054 348.393 198.132 347.451 197.192 346.467C195.318 344.505 193.39 342.597 191.439 340.713C189.487 338.829 187.494 336.987 185.483 335.157L183.966 333.783C183.46 333.321 182.955 332.865 182.437 332.361C182.306 332.235 182.175 332.103 182.033 331.947C181.997 331.905 181.955 331.863 181.914 331.809C181.896 331.785 181.866 331.755 181.842 331.719L181.801 331.665L181.747 331.587C181.735 331.569 181.705 331.515 181.676 331.461C181.652 331.413 181.622 331.377 181.574 331.191C181.551 331.143 181.467 330.783 181.682 330.345C181.854 329.991 182.306 329.787 182.348 329.799C182.515 329.751 182.592 329.751 182.633 329.745C182.699 329.739 182.758 329.739 182.782 329.745L182.883 329.751L182.955 329.757C183.127 329.781 183.234 329.811 183.341 329.841C183.443 329.871 183.544 329.901 183.633 329.931C183.817 329.991 183.996 330.057 184.162 330.123C184.847 330.393 185.483 330.693 186.114 331.011C187.369 331.647 188.571 332.361 189.737 333.123C190.903 333.885 192.034 334.707 193.116 335.577C195.288 337.323 197.293 339.267 199.072 341.397C202.629 345.639 205.324 350.589 206.966 355.828Z" fill="white"/>
<path d="M158.324 408.347C157.152 409.493 156.135 410.789 155.308 412.193C154.475 413.591 153.826 415.091 153.356 416.646C152.428 419.754 152.196 423.042 152.637 426.222C153.053 429.402 154.166 432.48 155.921 435.102C156.801 436.41 157.83 437.604 159.014 438.618L159.467 438.99L159.693 439.176L159.931 439.35L160.882 440.034L161.882 440.646C161.965 440.694 162.049 440.748 162.132 440.796L162.394 440.928L162.917 441.198C163.09 441.288 163.262 441.378 163.441 441.462L163.982 441.696C164.345 441.846 164.696 442.02 165.071 442.14C165.44 442.266 165.809 442.41 166.177 442.53L167.308 442.854C168.825 443.244 170.384 443.502 171.948 443.634C173.519 443.76 175.101 443.736 176.672 443.628C178.249 443.52 179.813 443.268 181.354 442.926C182.895 442.578 184.43 442.14 185.929 441.6C187.435 441.066 188.916 440.466 190.368 439.794C191.825 439.122 193.259 438.396 194.675 437.628C196.091 436.86 197.489 436.044 198.881 435.204C200.273 434.37 201.654 433.506 203.034 432.636C204.414 431.766 205.788 430.884 207.139 429.99C208.495 429.096 209.834 428.19 211.143 427.242C212.446 426.294 213.719 425.304 214.95 424.272C216.182 423.24 217.348 422.148 218.455 420.996C218.728 420.702 219.008 420.426 219.27 420.12L220.055 419.22C220.555 418.602 221.066 417.99 221.525 417.342C222.006 416.706 222.429 416.046 222.845 415.374C223.256 414.701 223.631 413.999 223.976 413.291C224.678 411.869 225.243 410.381 225.665 408.857C226.516 405.809 226.754 402.575 226.189 399.473C226.046 398.699 225.85 397.937 225.6 397.193C225.35 396.449 225.041 395.723 224.684 395.021C224.588 394.847 224.505 394.667 224.404 394.505L224.107 394.001C223.886 393.677 223.678 393.353 223.428 393.047C222.946 392.435 222.417 391.853 221.828 391.331C219.496 389.219 216.42 387.899 213.249 387.605C212.458 387.539 211.654 387.533 210.857 387.605C210.06 387.689 209.275 387.845 208.507 388.091C206.966 388.553 205.55 389.435 204.378 390.581C204.914 389.957 205.527 389.399 206.205 388.925C206.377 388.811 206.544 388.685 206.722 388.583L207.258 388.271L207.817 387.995C208.002 387.899 208.198 387.833 208.388 387.749C209.162 387.449 209.971 387.233 210.792 387.095C211.613 386.963 212.452 386.921 213.285 386.939C213.493 386.951 213.701 386.951 213.909 386.969L214.534 387.023C214.95 387.077 215.367 387.137 215.771 387.227C216.592 387.395 217.408 387.617 218.187 387.923C218.972 388.223 219.74 388.577 220.477 388.997C221.209 389.423 221.911 389.903 222.578 390.437L223.065 390.851L223.529 391.295C223.69 391.439 223.827 391.601 223.976 391.757L224.196 391.991L224.404 392.237C224.69 392.561 224.939 392.915 225.195 393.263L225.546 393.809C225.665 393.989 225.766 394.181 225.874 394.361C226.29 395.105 226.665 395.885 226.968 396.689C227.272 397.493 227.516 398.315 227.712 399.155C227.908 399.995 228.033 400.847 228.105 401.699C228.182 402.551 228.206 403.415 228.17 404.267C228.14 405.125 228.069 405.977 227.944 406.823C227.819 407.669 227.658 408.509 227.456 409.337C226.635 412.649 225.195 415.806 223.22 418.584C222.744 419.286 222.215 419.946 221.697 420.612L220.876 421.578C220.602 421.902 220.311 422.202 220.025 422.514C218.877 423.744 217.663 424.914 216.396 426.006C215.129 427.104 213.82 428.13 212.487 429.12C211.155 430.11 209.792 431.046 208.418 431.97C207.044 432.888 205.663 433.77 204.277 434.652C202.891 435.534 201.499 436.41 200.089 437.262C198.673 438.108 197.245 438.942 195.782 439.728C194.318 440.514 192.837 441.264 191.32 441.948C189.802 442.632 188.244 443.25 186.661 443.796C186.263 443.928 185.87 444.066 185.465 444.186L184.258 444.547C183.448 444.763 182.639 444.979 181.806 445.141C178.51 445.843 175.107 446.059 171.74 445.735C170.056 445.555 168.385 445.249 166.755 444.786L165.541 444.403C165.142 444.259 164.744 444.096 164.351 443.946C163.952 443.802 163.572 443.604 163.185 443.43L162.608 443.16C162.417 443.064 162.233 442.956 162.049 442.854L161.489 442.542L161.21 442.386C161.12 442.332 161.031 442.272 160.942 442.212L159.871 441.51L158.854 440.736L158.598 440.544L158.354 440.334L157.872 439.908C156.599 438.75 155.504 437.406 154.612 435.948C153.713 434.49 153.005 432.93 152.482 431.316C151.958 429.702 151.619 428.034 151.471 426.348C151.328 424.668 151.357 422.97 151.566 421.308C151.774 419.64 152.149 417.996 152.732 416.43C153.309 414.863 154.07 413.363 155.004 411.995C155.944 410.633 157.057 409.391 158.324 408.347Z" fill="white"/>
<path d="M270.672 419.202C272.106 419.46 273.54 419.604 274.968 419.562C276.396 419.502 277.806 419.352 279.186 419.04C280.566 418.734 281.923 418.35 283.243 417.852C284.57 417.372 285.867 416.814 287.146 416.202C289.704 414.99 292.167 413.561 294.654 412.085C297.135 410.609 299.58 409.085 301.996 407.525C307.184 405.083 312.288 402.455 317.304 399.635C318.577 398.921 319.725 398.279 320.564 397.541C320.986 397.169 321.314 396.803 321.611 396.335C321.908 395.873 322.164 395.333 322.384 394.739C322.825 393.563 323.134 392.135 323.473 390.725C323.812 389.321 324.122 387.905 324.413 386.489C326.775 375.16 327.899 363.508 327.769 351.819C328.911 363.454 328.816 375.268 327.424 386.987C327.251 388.451 327.061 389.915 326.846 391.379C326.626 392.831 326.454 394.295 326.019 395.903C325.805 396.701 325.514 397.523 325.097 398.327C324.687 399.137 324.11 399.929 323.497 400.571C322.254 401.873 320.891 402.749 319.707 403.565C314.864 406.877 309.897 410.021 304.822 412.985C302.103 414.125 299.372 415.218 296.624 416.256C293.881 417.288 291.079 418.308 288.193 419.094C286.754 419.496 285.296 419.832 283.821 420.084C282.351 420.354 280.852 420.504 279.364 420.564C277.871 420.63 276.378 420.528 274.914 420.324C273.457 420.108 272.035 419.706 270.672 419.202Z" fill="#FFFDFD"/>
</svg>
